<svg xmlns="http://www.w3.org/2000/svg" viewBox="0 0 2048 2048" width="512" height="512"><path transform="translate(1439,479)" d="m0 0h253l15 2 10 6 7 8 4 10v742h254l3 3-1 62h-1920l-1-2v-61l2-2h254v-289l2-9 4-8 3-4h2v-2l10-6 11-2h253l15 2 10 6 7 8 4 10v294h223v-513l2-9 4-8 3-4h2v-2l10-6 11-2h253l15 2 10 6 7 8 4 10 1 73-1 445h223v-737l2-9 4-8 3-4h2v-2l10-6zm34 65-1 15v688l189 1 2-1v-703zm-544 224-1 15v464l189 1 2-1v-479zm-544 224-1 15v240l189 1 2-1v-255z"></path><path transform="translate(481,1374)" d="m0 0h64l1 1 1 23v40l-4 16-4 9-6 11-9 11-7 7-15 10-15 8-5 6-3 10 3 14 12 28 15 36 17 41 6 8 5 3 4 1h10l21-6 7-1h21l17 4 14 6 13 9 18 18 7 8 9 10 20 20 8 7 10 9 8 7 11 14 8 16 4 15 1 6v20l-4 18-3 9v11l4 8 6 5 23 10 27 11 41 17 20 8 3 1h11l8-4 6-8 10-18 8-10h2v-2h2v-2l12-9 15-8 14-4 14-2 30 1h90l16 4 16 8 11 8 12 12 9 14 8 14 8 6 3 1h10l28-11 34-14 27-11 24-10 9-6 4-10v-7l-6-21-2-13v-11l3-17 4-12 7-13 10-13 6-6h2v-2l11-9 9-9 8-7 11-11 1-2h2l2-4 8-8 9-11 10-10 15-10 14-6 12-3 7-1h18l18 4 9 3 9 1 10-4 5-5 7-14 15-36 24-58 3-11-1-9-6-9-20-11-14-11-10-11-9-15-5-13-3-15v-20l2-40 1-1h63l1 1v15l-1 20v20l4 9 6 5 17 9 14 11 9 10 7 11 6 13 4 15 1 17-2 17-5 15-13 32-19 46-12 29-8 15-9 11-7 7-15 10-14 6-15 4-18 1-15-2-19-6h-8l-8 3-10 9-9 10-3 4h-2v2h-2l-2 4h-2v2h-2v2l-8 7-9 9-11 9-21 18-4 8v13l6 20 1 7v18l-3 15-5 14-8 13-9 11-9 8-13 8-27 12-32 13-46 19-22 8-11 2h-19l-14-3-15-6-11-7-12-10v-2h-2l-8-11-7-12-5-9-5-4-6-3-7-1-36 2h-26l-20-1h-23l-7 4-3 1-2 4-8 15-8 11-8 9-14 10-14 7-19 5h-26l-16-4-46-19-65-27-14-7-15-12v-2h-2l-10-13-8-16-4-12-2-13v-13l3-16 4-14v-11l-5-10-14-13-8-7-16-15-7-7-7-8-11-12-7-8-6-5-8-3h-7l-26 7-17 1-16-2-15-5-13-7-9-7-13-13-7-11-7-14-16-39-19-46-9-23-4-15-1-9v-9l2-14 5-16 7-13 7-9 8-9 11-8 16-9 7-5 4-9-1-18-1-23v-16z"></path><path transform="translate(1605,64)" d="m0 0 7 1 56 17 32 10 30 9 28 9 42 13 12 6 5 5 4 5 4 11v11l-4 11-15 27-13 23-14 25-12 21-14 25-14 24-11 20-8 13-5-2-26-15-24-14-1-4 12-21 14-25 13-23 13-24-20 7-34 14-108 43-49 20-130 52-27 11-107 43-172 69-40 16-37 15-155 62-34 14-108 43-37 15-107 43-82 33-140 56-27 11-40 16-28 11-5-1-19-47-3-7v-5l65-26 69-28 217-87 192-77 157-63 95-38 27-11 324-130 108-43 29-12 198-79 3-2-25-8-58-17-20-6-2-4 9-30 8-28z"></path><path transform="translate(673,1375)" d="m0 0h62l1 1 4 41 3 18 5 20 9 27 11 24 8 15 11 17 8 11 13 16 11 12 11 11 11 9 15 12 17 11 16 9 16 8 19 8 21 7 22 5 27 4 11 1h39l25-3 25-5 21-6 25-10 21-10 20-12 17-12 11-9 10-9 3-1v-2l7-6 1-2h2l2-4 9-9 15-20 10-15 9-16 8-16 8-19 9-29 5-26 3-25 1-16 2-5h62l2 2-2 35-5 33-6 26-11 33-12 27-11 21-14 22-7 10-11 14-9 11-14 15-9 9-8 7-14 12-19 14-17 11-25 14-19 9-29 11-29 8-26 5-23 3-13 1h-42l-23-2-29-5-24-6-30-10-29-13-24-13-24-16-12-9-13-11-20-18-16-17-9-11-13-17-15-23-10-18-13-27-7-18-8-26-6-27-4-27-2-27v-10z"></path></svg>