<svg xmlns="http://www.w3.org/2000/svg" viewBox="0 0 2048 2048" width="512" height="512"><path transform="translate(409,62)" d="m0 0 1 2 112-1h450l2-1v2l113-1h449l2-1v2l111-1 2-1v2l113-1 38 1 21 2 23 5 20 7 16 8 16 9 16 12 13 12 10 10 13 17 11 18 10 21 7 22 4 19 2 28v1544l-2 23-4 20-8 24-9 19-10 16-8 11-9 10-7 8-12 11-15 11-15 9-16 8-15 6-23 6-20 3-19 1h-641l-16-2-13-5-13-9-7-7-8-13-4-10-2-9v-18l3-12 8-16 11-12 10-7 11-5 14-3 64-1 3-1 1 1h109l6-4-2 5 109-1 5-3-1 4 109-1 3-2v3l110-1h3 131l14-2 12-5 11-7 7-6 7-10 5-10 4-20v-356l-1-2 1-2v-1182l-2-14-5-13-9-13-10-9-16-8-14-3-90-1h-1418l-44 1-13 3-12 6-11 9-7 8-8 15-3 15-1 648-2 16-5 13-7 10-7 8-13 9-14 5-12 2h-10l-15-3-14-7-9-7-8-9-8-14-4-16-1-52v-574l1-38 3-21 6-23 6-16 8-16 9-16 11-14 11-12 13-13 17-13 19-11 15-7 14-5 14-4 22-4 12-1 55-1h109z" fill="#010101"></path><path transform="translate(282,1087)" d="m0 0h471l38 2 19 3 21 6 15 6 16 8 16 10 16 13 12 11 10 11 12 16 9 15 10 21 7 22 4 19 2 27v523l-2 22-5 22-7 21-9 19-10 16-9 12-12 14-13 12-17 13-13 8-16 8-12 5-15 5-25 5-26 2h-511l-22-1-20-3-19-5-16-6-19-9-16-10-14-11-16-15-13-15-12-18-11-21-8-21-5-21-3-23-1-50v-457l1-33 3-22 6-23 6-16 11-22 8-12 10-13 9-10 13-13 17-13 13-8 16-8 19-8 19-5 19-3 12-1zm11 128-46 1-13 3-12 6-11 9-8 9-8 15-3 15v527l4 16 7 13 9 10 11 8 10 5 10 3 8 1h169l3-2v2h110l14-14 8-7 5-4-11 11-8 7-5 5v2h109l3-1 1 1h120l16-2 12-5 11-7 8-7 7-10 5-10 3-12 1-10v-515l-2-15-5-13-9-13-11-10-16-8-13-3-245-1z" fill="#010101"></path><path transform="translate(1327,383)" d="m0 0h232l44 1 14 2 13 5 10 7 8 7 9 14 5 13 2 18v322l-3 16-4 10-7 10-6 7-11 8-13 6-16 3h-9l-16-3-16-8-12-11-9-14-4-10-2-11-1-171-401 401-10 8-15 7-13 3h-17l-13-3-14-7-10-8-8-10-7-14-3-12v-18l3-12 8-16 11-12 397-397 1-2h-169l-16-3-14-7-9-7-9-10-8-16-3-12v-17l3-14 5-10 8-11 7-7 11-7 12-5 10-2z" fill="#010101"></path><path transform="translate(197,1438)" d="m0 0 7 6 18 18h-3l-22-22z" fill="#010101"></path><path transform="translate(196,534)" d="m0 0 7 6 18 18h-3l-22-22z" fill="#010101"></path><path transform="translate(199,651)" d="m0 0 4 2 19 19h-3l-20-20z" fill="#010101"></path><path transform="translate(1383,1835)" d="m0 0 4 2 7 7 8 7 1 2-4-2-8-7-8-8z" fill="#010101"></path><path transform="translate(1845,1446)" d="m0 0v3l-9 10-7 7-2-1 13-13z" fill="#010101"></path><path transform="translate(198,423)" d="m0 0 7 6 13 13h-3l-17-17z" fill="#010101"></path><path transform="translate(222,587)" d="m0 0 2 1-18 18v-3z" fill="#010101"></path><path transform="translate(1828,1377)" d="m0 0 4 2 14 14-1 2-17-17z" fill="#010101"></path><path transform="translate(1829,1264)" d="m0 0 7 6 10 10-1 2-16-16z" fill="#010101"></path><path transform="translate(1843,545)" d="m0 0 2 1-7 8-5 5-2-1 7-8z" fill="#010101"></path><path transform="translate(1847,1218)" d="m0 0 2 1-10 10-2 3h-2l2-4z" fill="#010101"></path><path transform="translate(1847,654)" d="m0 0 2 1-10 10-2 3h-2l2-4z" fill="#010101"></path><path transform="translate(1843,1109)" d="m0 0 2 1-9 10-4 2 6-8z" fill="#010101"></path><path transform="translate(590,1832)" d="m0 0 4 2 8 8h-3l-9-9z" fill="#010101"></path><path transform="translate(821,1568)" d="m0 0v3l-5 5h-2l1-3h2l1-3z" fill="#010101"></path><path transform="translate(603,1844)" d="m0 0 4 2v2l4 2 1 2-4-2-5-4z" fill="#010101"></path><path transform="translate(1829,1490)" d="m0 0 7 6 2 1v2l-4-2-5-5z" fill="#010101"></path><path transform="translate(1845,1333)" d="m0 0v3l-7 6 2-4z" fill="#010101"></path><path transform="translate(1507,1845)" d="m0 0 3 1 4 4-1 2-5-4z" fill="#010101"></path><path transform="translate(217,706)" d="m0 0v3l-5 5-2-1z" fill="#010101"></path><path transform="translate(213,484)" d="m0 0 1 2-7 6v-3h2l2-4z" fill="#010101"></path><path transform="translate(1839,1500)" d="m0 0 7 6-1 2-6-6z" fill="#010101"></path><path transform="translate(208,715)" d="m0 0v3l-3 3-2-1z" fill="#010101"></path><path transform="translate(1668,652)" d="m0 0 6 5h-3l-3-3z" fill="#010101"></path><path transform="translate(1336,1842)" d="m0 0 2 1-4 4-2-1z" fill="#010101"></path><path transform="translate(1453,1839)" d="m0 0v3l-4 2z" fill="#010101"></path><path transform="translate(213,1500)" d="m0 0 1 2-5 3 2-4z" fill="#010101"></path><path transform="translate(1216,1849)" d="m0 0 2 1-3 3-2-1z" fill="#010101"></path><path transform="translate(216,1496)" d="m0 0h2v2l-4 2z" fill="#010101"></path><path transform="translate(216,480)" d="m0 0h2v2l-4 2z" fill="#010101"></path><path transform="translate(221,476)" d="m0 0v3l-3 1 1-3z" fill="#010101"></path><path transform="translate(652,1849)" d="m0 0v3h-3z" fill="#242424"></path><path transform="translate(1444,1847)" d="m0 0v3h-3z" fill="#010101"></path><path transform="translate(1458,1834)" d="m0 0v3h-3z" fill="#010101"></path><path transform="translate(221,1492)" d="m0 0 1 2-4 2 1-3z" fill="#010101"></path><path transform="translate(1846,1508)" d="m0 0 3 2-1 2z" fill="#010101"></path><path transform="translate(1837,1342)" d="m0 0v3l-2 1z" fill="#010101"></path><path transform="translate(1847,1283)" d="m0 0 3 2-1 2z" fill="#010101"></path><path transform="translate(523,1077)" d="m0 0v3l-2 1z" fill="#010101"></path><path transform="translate(1847,719)" d="m0 0 3 2-1 2z" fill="#010101"></path><path transform="translate(813,1576)" d="m0 0v3l-2-1z" fill="#010101"></path><path transform="translate(207,1505)" d="m0 0 2 1-3 2z" fill="#010101"></path><path transform="translate(828,1447)" d="m0 0v3l-2-1z" fill="#010101"></path><path transform="translate(1848,1443)" d="m0 0v3l-2-1z" fill="#010101"></path><path transform="translate(1852,1439)" d="m0 0v3l-2-1z" fill="#010101"></path><path transform="translate(1675,659)" d="m0 0 3 3-3-1z" fill="#010101"></path><path transform="translate(218,443)" d="m0 0 3 3-3-1z" fill="#010101"></path><path transform="translate(1624,1849)" d="m0 0 3 1h-3z" fill="#010101"></path><path transform="translate(1850,1513)" d="m0 0 2 1-1 2z" fill="#010101"></path><path transform="translate(1850,1400)" d="m0 0 2 1-1 2z" fill="#010101"></path><path transform="translate(1847,1396)" d="m0 0 2 1-1 2z" fill="#010101"></path><path transform="translate(409,1078)" d="m0 0v3z" fill="#010101"></path><path transform="translate(1843,714)" d="m0 0 2 1-1 2z" fill="#010101"></path><path transform="translate(1678,550)" d="m0 0 3 1h-3z" fill="#010101"></path><path transform="translate(1067,52)" d="m0 0 3 1h-3z" fill="#FCFCFC"></path><path transform="translate(496,1849)" d="m0 0 2 2h-2z" fill="#010101"></path><path transform="translate(1329,1849)" d="m0 0 1 2-2-1z" fill="#010101"></path><path transform="translate(426,1849)" d="m0 0 1 2-2-1z" fill="#010101"></path><path transform="translate(1331,1847)" d="m0 0 1 2-2-1z" fill="#010101"></path><path transform="translate(1852,1551)" d="m0 0 1 2-2-1z" fill="#010101"></path><path transform="translate(1850,1328)" d="m0 0 1 2-2-1z" fill="#010101"></path><path transform="translate(1833,1232)" d="m0 0 2 1-2 1z" fill="#010101"></path><path transform="translate(1844,770)" d="m0 0 1 2-2-1z" fill="#010101"></path><path transform="translate(1841,712)" d="m0 0 2 2h-2z" fill="#010101"></path><path transform="translate(1837,708)" d="m0 0 2 2h-2z" fill="#010101"></path><path transform="translate(1833,704)" d="m0 0 2 2h-2z" fill="#010101"></path><path transform="translate(195,647)" d="m0 0h2l-1 2z" fill="#010101"></path><path transform="translate(1676,548)" d="m0 0h2l-1 2z" fill="#010101"></path><path transform="translate(205,492)" d="m0 0 1 2-2-1z" fill="#010101"></path><path transform="translate(1071,55)" d="m0 0 2 2h-2z" fill="#545454"></path><path transform="translate(507,55)" d="m0 0 2 2h-2z" fill="#FCFCFC"></path><path transform="translate(504,52)" d="m0 0 2 2h-2z" fill="#FCFCFC"></path><path transform="translate(1611,1837)" d="m0 0 2 1z" fill="#010101"></path><path transform="translate(1498,1837)" d="m0 0 2 1z" fill="#010101"></path><path transform="translate(589,1830)" d="m0 0" fill="#010101"></path><path transform="translate(828,1619)" d="m0 0" fill="#010101"></path><path transform="translate(824,1614)" d="m0 0" fill="#010101"></path><path transform="translate(809,1580)" d="m0 0" fill="#010101"></path><path transform="translate(222,1490)" d="m0 0" fill="#010101"></path><path transform="translate(1827,1489)" d="m0 0 2 1z" fill="#010101"></path><path transform="translate(1826,1466)" d="m0 0" fill="#010101"></path><path transform="translate(814,1462)" d="m0 0" fill="#010101"></path><path transform="translate(1851,1288)" d="m0 0" fill="#010101"></path><path transform="translate(1850,1215)" d="m0 0" fill="#010101"></path><path transform="translate(1851,950)" d="m0 0" fill="#010101"></path><path transform="translate(1851,837)" d="m0 0" fill="#010101"></path><path transform="translate(1848,833)" d="m0 0" fill="#010101"></path><path transform="translate(1843,827)" d="m0 0" fill="#010101"></path><path transform="translate(1841,773)" d="m0 0" fill="#010101"></path><path transform="translate(1851,724)" d="m0 0" fill="#010101"></path><path transform="translate(1850,651)" d="m0 0" fill="#FCFCFC"></path><path transform="translate(201,609)" d="m0 0" fill="#010101"></path><path transform="translate(1848,607)" d="m0 0" fill="#010101"></path><path transform="translate(1844,602)" d="m0 0" fill="#010101"></path><path transform="translate(1846,542)" d="m0 0" fill="#010101"></path><path transform="translate(1851,498)" d="m0 0" fill="#010101"></path><path transform="translate(1212,1853)" d="m0 0" fill="#FCFCFC"></path><path transform="translate(648,1853)" d="m0 0" fill="#FCFCFC"></path><path transform="translate(1514,1852)" d="m0 0" fill="#010101"></path><path transform="translate(1665,1851)" d="m0 0" fill="#010101"></path><path transform="translate(1627,1851)" d="m0 0" fill="#010101"></path><path transform="translate(1552,1851)" d="m0 0" fill="#010101"></path><path transform="translate(1440,1851)" d="m0 0" fill="#010101"></path><path transform="translate(424,1851)" d="m0 0" fill="#010101"></path><path transform="translate(1553,1850)" d="m0 0" fill="#010101"></path><path transform="translate(1286,1850)" d="m0 0" fill="#010101"></path><path transform="translate(1623,1848)" d="m0 0" fill="#010101"></path><path transform="translate(653,1848)" d="m0 0" fill="#010101"></path><path transform="translate(1622,1847)" d="m0 0" fill="#010101"></path><path transform="translate(654,1847)" d="m0 0" fill="#010101"></path><path transform="translate(1621,1846)" d="m0 0" fill="#010101"></path><path transform="translate(1620,1845)" d="m0 0" fill="#010101"></path><path transform="translate(1447,1845)" d="m0 0" fill="#010101"></path><path transform="translate(1619,1844)" d="m0 0" fill="#010101"></path><path transform="translate(1506,1844)" d="m0 0" fill="#010101"></path><path transform="translate(1448,1844)" d="m0 0" fill="#010101"></path><path transform="translate(432,1844)" d="m0 0" fill="#010101"></path><path transform="translate(1618,1843)" d="m0 0" fill="#010101"></path><path transform="translate(1505,1843)" d="m0 0" fill="#010101"></path><path transform="translate(602,1843)" d="m0 0" fill="#010101"></path><path transform="translate(433,1843)" d="m0 0" fill="#010101"></path><path transform="translate(1617,1842)" d="m0 0" fill="#010101"></path><path transform="translate(1504,1842)" d="m0 0" fill="#010101"></path><path transform="translate(434,1842)" d="m0 0" fill="#010101"></path><path transform="translate(1616,1841)" d="m0 0" fill="#010101"></path><path transform="translate(1503,1841)" d="m0 0" fill="#010101"></path><path transform="translate(1338,1841)" d="m0 0" fill="#010101"></path><path transform="translate(435,1841)" d="m0 0" fill="#010101"></path><path transform="translate(1615,1840)" d="m0 0" fill="#010101"></path><path transform="translate(1502,1840)" d="m0 0" fill="#010101"></path><path transform="translate(1339,1840)" d="m0 0" fill="#010101"></path><path transform="translate(436,1840)" d="m0 0" fill="#010101"></path><path transform="translate(1614,1839)" d="m0 0" fill="#010101"></path><path transform="translate(1340,1839)" d="m0 0" fill="#010101"></path><path transform="translate(1613,1838)" d="m0 0" fill="#010101"></path><path transform="translate(1500,1838)" d="m0 0" fill="#010101"></path><path transform="translate(1454,1838)" d="m0 0" fill="#010101"></path><path transform="translate(1341,1838)" d="m0 0" fill="#010101"></path><path transform="translate(1342,1837)" d="m0 0" fill="#010101"></path><path transform="translate(1343,1836)" d="m0 0" fill="#010101"></path><path transform="translate(1344,1835)" d="m0 0" fill="#010101"></path><path transform="translate(1609,1834)" d="m0 0" fill="#010101"></path><path transform="translate(1382,1834)" d="m0 0" fill="#010101"></path><path transform="translate(1494,1833)" d="m0 0" fill="#010101"></path><path transform="translate(1381,1833)" d="m0 0" fill="#010101"></path><path transform="translate(1380,1832)" d="m0 0" fill="#010101"></path><path transform="translate(1379,1831)" d="m0 0" fill="#010101"></path><path transform="translate(1378,1830)" d="m0 0" fill="#010101"></path><path transform="translate(1377,1829)" d="m0 0" fill="#010101"></path><path transform="translate(1376,1828)" d="m0 0" fill="#010101"></path><path transform="translate(561,1828)" d="m0 0" fill="#010101"></path><path transform="translate(562,1827)" d="m0 0" fill="#010101"></path><path transform="translate(1373,1825)" d="m0 0" fill="#010101"></path><path transform="translate(1372,1824)" d="m0 0" fill="#010101"></path><path transform="translate(821,1680)" d="m0 0" fill="#010101"></path><path transform="translate(57,1637)" d="m0 0" fill="#FCFCFC"></path><path transform="translate(56,1636)" d="m0 0" fill="#FCFCFC"></path><path transform="translate(1852,1629)" d="m0 0" fill="#010101"></path><path transform="translate(1849,1625)" d="m0 0" fill="#010101"></path><path transform="translate(1848,1623)" d="m0 0" fill="#010101"></path><path transform="translate(206,1620)" d="m0 0" fill="#010101"></path><path transform="translate(827,1618)" d="m0 0" fill="#010101"></path><path transform="translate(826,1617)" d="m0 0" fill="#010101"></path><path transform="translate(209,1617)" d="m0 0" fill="#010101"></path><path transform="translate(825,1616)" d="m0 0" fill="#010101"></path><path transform="translate(210,1616)" d="m0 0" fill="#010101"></path><path transform="translate(211,1615)" d="m0 0" fill="#010101"></path><path transform="translate(212,1614)" d="m0 0" fill="#010101"></path><path transform="translate(823,1613)" d="m0 0" fill="#010101"></path><path transform="translate(213,1613)" d="m0 0" fill="#010101"></path><path transform="translate(214,1612)" d="m0 0" fill="#010101"></path><path transform="translate(821,1611)" d="m0 0" fill="#010101"></path><path transform="translate(215,1611)" d="m0 0" fill="#010101"></path><path transform="translate(820,1610)" d="m0 0" fill="#010101"></path><path transform="translate(819,1609)" d="m0 0" fill="#010101"></path><path transform="translate(817,1606)" d="m0 0" fill="#010101"></path><path transform="translate(816,1605)" d="m0 0" fill="#010101"></path><path transform="translate(815,1604)" d="m0 0" fill="#010101"></path><path transform="translate(813,1602)" d="m0 0" fill="#010101"></path><path transform="translate(806,1583)" d="m0 0" fill="#010101"></path><path transform="translate(807,1582)" d="m0 0" fill="#010101"></path><path transform="translate(810,1579)" d="m0 0" fill="#010101"></path><path transform="translate(822,1567)" d="m0 0" fill="#010101"></path><path transform="translate(826,1562)" d="m0 0" fill="#010101"></path><path transform="translate(827,1561)" d="m0 0" fill="#010101"></path><path transform="translate(828,1560)" d="m0 0" fill="#010101"></path><path transform="translate(829,1559)" d="m0 0" fill="#010101"></path><path transform="translate(47,1552)" d="m0 0" fill="#FCFCFC"></path><path transform="translate(2e3 1545)" d="m0 0" fill="#FCFCFC"></path><path transform="translate(58,1541)" d="m0 0" fill="#FCFCFC"></path><path transform="translate(59,1540)" d="m0 0" fill="#FCFCFC"></path><path transform="translate(1852,1516)" d="m0 0" fill="#010101"></path><path transform="translate(1849,1512)" d="m0 0" fill="#010101"></path><path transform="translate(201,1512)" d="m0 0" fill="#010101"></path><path transform="translate(202,1511)" d="m0 0" fill="#010101"></path><path transform="translate(203,1510)" d="m0 0" fill="#010101"></path><path transform="translate(204,1509)" d="m0 0" fill="#010101"></path><path transform="translate(205,1508)" d="m0 0" fill="#010101"></path><path transform="translate(828,1507)" d="m0 0" fill="#010101"></path><path transform="translate(827,1506)" d="m0 0" fill="#010101"></path><path transform="translate(1838,1499)" d="m0 0" fill="#010101"></path><path transform="translate(1824,1486)" d="m0 0" fill="#010101"></path><path transform="translate(1825,1468)" d="m0 0" fill="#010101"></path><path transform="translate(225,1466)" d="m0 0" fill="#010101"></path><path transform="translate(224,1465)" d="m0 0" fill="#010101"></path><path transform="translate(813,1464)" d="m0 0" fill="#010101"></path><path transform="translate(223,1464)" d="m0 0" fill="#010101"></path><path transform="translate(222,1463)" d="m0 0" fill="#010101"></path><path transform="translate(817,1460)" d="m0 0" fill="#010101"></path><path transform="translate(818,1459)" d="m0 0" fill="#010101"></path><path transform="translate(823,1452)" d="m0 0" fill="#010101"></path><path transform="translate(824,1451)" d="m0 0" fill="#010101"></path><path transform="translate(825,1450)" d="m0 0" fill="#010101"></path><path transform="translate(829,1446)" d="m0 0" fill="#010101"></path><path transform="translate(1849,1442)" d="m0 0" fill="#010101"></path><path transform="translate(45,1441)" d="m0 0" fill="#FCFCFC"></path><path transform="translate(46,1440)" d="m0 0" fill="#FCFCFC"></path><path transform="translate(47,1439)" d="m0 0" fill="#FCFCFC"></path><path transform="translate(1853,1438)" d="m0 0" fill="#010101"></path><path transform="translate(48,1438)" d="m0 0" fill="#FCFCFC"></path><path transform="translate(196,1437)" d="m0 0" fill="#010101"></path><path transform="translate(49,1437)" d="m0 0" fill="#FCFCFC"></path><path transform="translate(195,1436)" d="m0 0" fill="#010101"></path><path transform="translate(50,1436)" d="m0 0" fill="#FCFCFC"></path><path transform="translate(194,1435)" d="m0 0" fill="#010101"></path><path transform="translate(51,1435)" d="m0 0" fill="#FCFCFC"></path><path transform="translate(55,1431)" d="m0 0" fill="#FCFCFC"></path><path transform="translate(1853,1404)" d="m0 0" fill="#010101"></path><path transform="translate(1852,1403)" d="m0 0" fill="#010101"></path><path transform="translate(1849,1399)" d="m0 0" fill="#010101"></path><path transform="translate(1846,1395)" d="m0 0" fill="#010101"></path><path transform="translate(1826,1374)" d="m0 0" fill="#010101"></path><path transform="translate(1832,1348)" d="m0 0" fill="#010101"></path><path transform="translate(1833,1347)" d="m0 0" fill="#010101"></path><path transform="translate(1834,1346)" d="m0 0" fill="#010101"></path><path transform="translate(1846,1332)" d="m0 0" fill="#010101"></path><path transform="translate(1847,1331)" d="m0 0" fill="#010101"></path><path transform="translate(1848,1330)" d="m0 0" fill="#010101"></path><path transform="translate(1851,1327)" d="m0 0" fill="#010101"></path><path transform="translate(1852,1326)" d="m0 0" fill="#010101"></path><path transform="translate(1853,1325)" d="m0 0" fill="#010101"></path><path transform="translate(1852,1290)" d="m0 0" fill="#010101"></path><path transform="translate(1846,1282)" d="m0 0" fill="#010101"></path><path transform="translate(1849,1217)" d="m0 0" fill="#010101"></path><path transform="translate(1851,1214)" d="m0 0" fill="#010101"></path><path transform="translate(1852,1213)" d="m0 0" fill="#010101"></path><path transform="translate(1845,1108)" d="m0 0" fill="#010101"></path><path transform="translate(1846,1107)" d="m0 0" fill="#010101"></path><path transform="translate(1850,1102)" d="m0 0" fill="#010101"></path><path transform="translate(1851,1101)" d="m0 0" fill="#010101"></path><path transform="translate(1852,1100)" d="m0 0" fill="#010101"></path><path transform="translate(1853,1099)" d="m0 0" fill="#010101"></path><path transform="translate(2e3 1093)" d="m0 0" fill="#FCFCFC"></path><path transform="translate(410,1077)" d="m0 0" fill="#010101"></path><path transform="translate(524,1076)" d="m0 0" fill="#010101"></path><path transform="translate(411,1076)" d="m0 0" fill="#010101"></path><path transform="translate(525,1075)" d="m0 0" fill="#010101"></path><path transform="translate(412,1075)" d="m0 0" fill="#010101"></path><path transform="translate(526,1074)" d="m0 0" fill="#010101"></path><path transform="translate(413,1074)" d="m0 0" fill="#010101"></path><path transform="translate(527,1073)" d="m0 0" fill="#010101"></path><path transform="translate(528,1072)" d="m0 0" fill="#010101"></path><path transform="translate(529,1071)" d="m0 0" fill="#010101"></path><path transform="translate(530,1070)" d="m0 0" fill="#010101"></path><path transform="translate(531,1069)" d="m0 0" fill="#010101"></path><path transform="translate(532,1068)" d="m0 0" fill="#010101"></path><path transform="translate(533,1067)" d="m0 0" fill="#010101"></path><path transform="translate(534,1066)" d="m0 0" fill="#010101"></path><path transform="translate(535,1065)" d="m0 0" fill="#010101"></path><path transform="translate(536,1064)" d="m0 0" fill="#010101"></path><path transform="translate(537,1063)" d="m0 0" fill="#010101"></path><path transform="translate(540,1060)" d="m0 0" fill="#010101"></path><path transform="translate(426,1060)" d="m0 0" fill="#010101"></path><path transform="translate(541,1059)" d="m0 0" fill="#010101"></path><path transform="translate(427,1059)" d="m0 0" fill="#010101"></path><path transform="translate(428,1058)" d="m0 0" fill="#010101"></path><path transform="translate(429,1057)" d="m0 0" fill="#010101"></path><path transform="translate(430,1056)" d="m0 0" fill="#010101"></path><path transform="translate(545,1055)" d="m0 0" fill="#010101"></path><path transform="translate(431,1055)" d="m0 0" fill="#010101"></path><path transform="translate(432,1054)" d="m0 0" fill="#010101"></path><path transform="translate(433,1053)" d="m0 0" fill="#010101"></path><path transform="translate(434,1052)" d="m0 0" fill="#010101"></path><path transform="translate(435,1051)" d="m0 0" fill="#010101"></path><path transform="translate(1852,987)" d="m0 0" fill="#010101"></path><path transform="translate(2e3 981)" d="m0 0" fill="#FCFCFC"></path><path transform="translate(1852,952)" d="m0 0" fill="#010101"></path><path transform="translate(1850,949)" d="m0 0" fill="#010101"></path><path transform="translate(1849,948)" d="m0 0" fill="#010101"></path><path transform="translate(1848,947)" d="m0 0" fill="#010101"></path><path transform="translate(1843,940)" d="m0 0" fill="#010101"></path><path transform="translate(1841,938)" d="m0 0" fill="#010101"></path><path transform="translate(1837,933)" d="m0 0" fill="#010101"></path><path transform="translate(1853,840)" d="m0 0" fill="#010101"></path><path transform="translate(1852,839)" d="m0 0" fill="#010101"></path><path transform="translate(1850,836)" d="m0 0" fill="#010101"></path><path transform="translate(1849,835)" d="m0 0" fill="#010101"></path><path transform="translate(1847,832)" d="m0 0" fill="#010101"></path><path transform="translate(1845,830)" d="m0 0" fill="#010101"></path><path transform="translate(1844,829)" d="m0 0" fill="#010101"></path><path transform="translate(1842,826)" d="m0 0" fill="#010101"></path><path transform="translate(1841,825)" d="m0 0" fill="#010101"></path><path transform="translate(1840,824)" d="m0 0" fill="#010101"></path><path transform="translate(1839,823)" d="m0 0" fill="#010101"></path><path transform="translate(1838,822)" d="m0 0" fill="#010101"></path><path transform="translate(1837,821)" d="m0 0" fill="#010101"></path><path transform="translate(1836,820)" d="m0 0" fill="#010101"></path><path transform="translate(1835,819)" d="m0 0" fill="#010101"></path><path transform="translate(1834,818)" d="m0 0" fill="#010101"></path><path transform="translate(1833,817)" d="m0 0" fill="#010101"></path><path transform="translate(1832,816)" d="m0 0" fill="#010101"></path><path transform="translate(1830,814)" d="m0 0" fill="#010101"></path><path transform="translate(1836,780)" d="m0 0" fill="#010101"></path><path transform="translate(1837,779)" d="m0 0" fill="#010101"></path><path transform="translate(1839,776)" d="m0 0" fill="#010101"></path><path transform="translate(1840,775)" d="m0 0" fill="#010101"></path><path transform="translate(1842,772)" d="m0 0" fill="#010101"></path><path transform="translate(1845,769)" d="m0 0" fill="#010101"></path><path transform="translate(1846,768)" d="m0 0" fill="#010101"></path><path transform="translate(1847,767)" d="m0 0" fill="#010101"></path><path transform="translate(1848,766)" d="m0 0" fill="#010101"></path><path transform="translate(1850,765)" d="m0 0" fill="#010101"></path><path transform="translate(1852,762)" d="m0 0" fill="#010101"></path><path transform="translate(1853,761)" d="m0 0" fill="#010101"></path><path transform="translate(1852,726)" d="m0 0" fill="#010101"></path><path transform="translate(201,722)" d="m0 0" fill="#010101"></path><path transform="translate(202,721)" d="m0 0" fill="#010101"></path><path transform="translate(1846,718)" d="m0 0" fill="#010101"></path><path transform="translate(1845,717)" d="m0 0" fill="#010101"></path><path transform="translate(209,714)" d="m0 0" fill="#010101"></path><path transform="translate(1840,711)" d="m0 0" fill="#010101"></path><path transform="translate(1839,710)" d="m0 0" fill="#010101"></path><path transform="translate(1836,707)" d="m0 0" fill="#010101"></path><path transform="translate(1835,706)" d="m0 0" fill="#010101"></path><path transform="translate(1832,703)" d="m0 0" fill="#010101"></path><path transform="translate(1831,702)" d="m0 0" fill="#010101"></path><path transform="translate(1830,701)" d="m0 0" fill="#010101"></path><path transform="translate(1829,700)" d="m0 0" fill="#010101"></path><path transform="translate(225,676)" d="m0 0" fill="#010101"></path><path transform="translate(224,675)" d="m0 0" fill="#010101"></path><path transform="translate(223,674)" d="m0 0" fill="#010101"></path><path transform="translate(222,673)" d="m0 0" fill="#010101"></path><path transform="translate(1833,669)" d="m0 0" fill="#010101"></path><path transform="translate(1834,668)" d="m0 0" fill="#010101"></path><path transform="translate(1682,666)" d="m0 0" fill="#010101"></path><path transform="translate(1681,665)" d="m0 0" fill="#010101"></path><path transform="translate(1680,664)" d="m0 0" fill="#010101"></path><path transform="translate(1679,663)" d="m0 0" fill="#010101"></path><path transform="translate(1678,662)" d="m0 0" fill="#010101"></path><path transform="translate(1674,658)" d="m0 0" fill="#010101"></path><path transform="translate(1849,653)" d="m0 0" fill="#010101"></path><path transform="translate(1667,651)" d="m0 0" fill="#010101"></path><path transform="translate(1851,650)" d="m0 0" fill="#010101"></path><path transform="translate(198,650)" d="m0 0" fill="#010101"></path><path transform="translate(1852,649)" d="m0 0" fill="#010101"></path><path transform="translate(197,649)" d="m0 0" fill="#010101"></path><path transform="translate(196,615)" d="m0 0" fill="#010101"></path><path transform="translate(197,614)" d="m0 0" fill="#010101"></path><path transform="translate(1852,613)" d="m0 0" fill="#010101"></path><path transform="translate(198,613)" d="m0 0" fill="#010101"></path><path transform="translate(1851,612)" d="m0 0" fill="#010101"></path><path transform="translate(199,612)" d="m0 0" fill="#010101"></path><path transform="translate(200,611)" d="m0 0" fill="#010101"></path><path transform="translate(1850,610)" d="m0 0" fill="#010101"></path><path transform="translate(1849,609)" d="m0 0" fill="#010101"></path><path transform="translate(202,608)" d="m0 0" fill="#010101"></path><path transform="translate(203,607)" d="m0 0" fill="#010101"></path><path transform="translate(1847,606)" d="m0 0" fill="#010101"></path><path transform="translate(204,606)" d="m0 0" fill="#010101"></path><path transform="translate(1846,605)" d="m0 0" fill="#010101"></path><path transform="translate(1845,604)" d="m0 0" fill="#010101"></path><path transform="translate(1843,601)" d="m0 0" fill="#010101"></path><path transform="translate(1842,600)" d="m0 0" fill="#010101"></path><path transform="translate(224,562)" d="m0 0" fill="#010101"></path><path transform="translate(223,561)" d="m0 0" fill="#010101"></path><path transform="translate(222,560)" d="m0 0" fill="#010101"></path><path transform="translate(221,559)" d="m0 0" fill="#010101"></path><path transform="translate(1683,554)" d="m0 0" fill="#010101"></path><path transform="translate(1681,552)" d="m0 0" fill="#010101"></path><path transform="translate(1675,547)" d="m0 0" fill="#010101"></path><path transform="translate(1674,546)" d="m0 0" fill="#010101"></path><path transform="translate(1673,545)" d="m0 0" fill="#010101"></path><path transform="translate(1845,544)" d="m0 0" fill="#010101"></path><path transform="translate(1672,544)" d="m0 0" fill="#010101"></path><path transform="translate(1671,543)" d="m0 0" fill="#010101"></path><path transform="translate(1670,542)" d="m0 0" fill="#010101"></path><path transform="translate(1669,541)" d="m0 0" fill="#010101"></path><path transform="translate(1668,540)" d="m0 0" fill="#010101"></path><path transform="translate(1667,539)" d="m0 0" fill="#010101"></path><path transform="translate(1850,538)" d="m0 0" fill="#010101"></path><path transform="translate(1851,537)" d="m0 0" fill="#010101"></path><path transform="translate(1852,536)" d="m0 0" fill="#010101"></path><path transform="translate(1853,535)" d="m0 0" fill="#010101"></path><path transform="translate(60,524)" d="m0 0" fill="#FCFCFC"></path><path transform="translate(57,509)" d="m0 0" fill="#FCFCFC"></path><path transform="translate(56,508)" d="m0 0" fill="#FCFCFC"></path><path transform="translate(1852,500)" d="m0 0" fill="#010101"></path><path transform="translate(1850,497)" d="m0 0" fill="#010101"></path><path transform="translate(1849,496)" d="m0 0" fill="#010101"></path><path transform="translate(201,496)" d="m0 0" fill="#010101"></path><path transform="translate(1848,495)" d="m0 0" fill="#010101"></path><path transform="translate(202,495)" d="m0 0" fill="#010101"></path><path transform="translate(203,494)" d="m0 0" fill="#010101"></path><path transform="translate(1843,488)" d="m0 0" fill="#010101"></path><path transform="translate(1841,486)" d="m0 0" fill="#010101"></path><path transform="translate(222,475)" d="m0 0" fill="#010101"></path><path transform="translate(225,450)" d="m0 0" fill="#010101"></path><path transform="translate(224,449)" d="m0 0" fill="#010101"></path><path transform="translate(223,448)" d="m0 0" fill="#010101"></path><path transform="translate(222,447)" d="m0 0" fill="#010101"></path><path transform="translate(221,446)" d="m0 0" fill="#010101"></path><path transform="translate(1850,425)" d="m0 0" fill="#010101"></path><path transform="translate(1851,424)" d="m0 0" fill="#010101"></path><path transform="translate(1852,423)" d="m0 0" fill="#010101"></path><path transform="translate(197,422)" d="m0 0" fill="#010101"></path><path transform="translate(196,421)" d="m0 0" fill="#010101"></path><path transform="translate(195,420)" d="m0 0" fill="#010101"></path><path transform="translate(712,211)" d="m0 0" fill="#010101"></path><path transform="translate(599,211)" d="m0 0" fill="#010101"></path><path transform="translate(601,208)" d="m0 0" fill="#010101"></path><path transform="translate(717,206)" d="m0 0" fill="#010101"></path><path transform="translate(723,201)" d="m0 0" fill="#010101"></path><path transform="translate(729,195)" d="m0 0" fill="#010101"></path><path transform="translate(616,195)" d="m0 0" fill="#010101"></path><path transform="translate(1427,59)" d="m0 0" fill="#010101"></path><path transform="translate(1314,59)" d="m0 0" fill="#FCFCFC"></path><path transform="translate(1301,59)" d="m0 0" fill="#010101"></path><path transform="translate(1075,59)" d="m0 0" fill="#FCFCFC"></path><path transform="translate(863,59)" d="m0 0" fill="#FCFCFC"></path><path transform="translate(750,59)" d="m0 0" fill="#010101"></path><path transform="translate(737,59)" d="m0 0" fill="#FCFCFC"></path><path transform="translate(1428,58)" d="m0 0" fill="#FCFCFC"></path><path transform="translate(1413,58)" d="m0 0" fill="#010101"></path><path transform="translate(1315,58)" d="m0 0" fill="#FCFCFC"></path><path transform="translate(1300,58)" d="m0 0" fill="#010101"></path><path transform="translate(1187,58)" d="m0 0" fill="#010101"></path><path transform="translate(1074,58)" d="m0 0" fill="#010101"></path><path transform="translate(864,58)" d="m0 0" fill="#FCFCFC"></path><path transform="translate(751,58)" d="m0 0" fill="#010101"></path><path transform="translate(736,58)" d="m0 0" fill="#010101"></path><path transform="translate(623,58)" d="m0 0" fill="#FCFCFC"></path><path transform="translate(510,58)" d="m0 0" fill="#FCFCFC"></path><path transform="translate(397,58)" d="m0 0" fill="#FCFCFC"></path><path transform="translate(1429,57)" d="m0 0" fill="#FCFCFC"></path><path transform="translate(1412,57)" d="m0 0" fill="#010101"></path><path transform="translate(1299,57)" d="m0 0" fill="#FCFCFC"></path><path transform="translate(1186,57)" d="m0 0" fill="#FCFCFC"></path><path transform="translate(1073,57)" d="m0 0" fill="#010101"></path><path transform="translate(865,57)" d="m0 0" fill="#FCFCFC"></path><path transform="translate(752,57)" d="m0 0" fill="#010101"></path><path transform="translate(735,57)" d="m0 0" fill="#FCFCFC"></path><path transform="translate(509,57)" d="m0 0" fill="#010101"></path><path transform="translate(396,57)" d="m0 0" fill="#FCFCFC"></path><path transform="translate(1430,56)" d="m0 0" fill="#FCFCFC"></path><path transform="translate(1411,56)" d="m0 0" fill="#010101"></path><path transform="translate(1185,56)" d="m0 0" fill="#FCFCFC"></path><path transform="translate(753,56)" d="m0 0" fill="#FCFCFC"></path><path transform="translate(395,56)" d="m0 0" fill="#FCFCFC"></path><path transform="translate(1431,55)" d="m0 0" fill="#FCFCFC"></path><path transform="translate(1410,55)" d="m0 0" fill="#FCFCFC"></path><path transform="translate(867,55)" d="m0 0" fill="#FCFCFC"></path><path transform="translate(754,55)" d="m0 0" fill="#FCFCFC"></path><path transform="translate(1070,54)" d="m0 0" fill="#FCFCFC"></path><path transform="translate(506,54)" d="m0 0" fill="#FCFCFC"></path><path transform="translate(1433,53)" d="m0 0" fill="#FCFCFC"></path><path transform="translate(869,53)" d="m0 0" fill="#FCFCFC"></path><path transform="translate(1434,52)" d="m0 0" fill="#FCFCFC"></path><path transform="translate(870,52)" d="m0 0" fill="#FCFCFC"></path><path transform="translate(757,52)" d="m0 0" fill="#FCFCFC"></path><path transform="translate(1435,51)" d="m0 0" fill="#010101"></path><path transform="translate(871,51)" d="m0 0" fill="#FCFCFC"></path><path transform="translate(1436,50)" d="m0 0" fill="#FCFCFC"></path><path transform="translate(872,50)" d="m0 0" fill="#FCFCFC"></path><path transform="translate(1437,49)" d="m0 0" fill="#FCFCFC"></path><path transform="translate(1064,49)" d="m0 0" fill="#FCFCFC"></path><path transform="translate(873,49)" d="m0 0" fill="#FCFCFC"></path><path transform="translate(500,49)" d="m0 0" fill="#FCFCFC"></path><path transform="translate(1063,48)" d="m0 0" fill="#FCFCFC"></path><path transform="translate(499,48)" d="m0 0" fill="#FCFCFC"></path><path transform="translate(1061,46)" d="m0 0" fill="#FCFCFC"></path><path transform="translate(497,46)" d="m0 0" fill="#FCFCFC"></path><path transform="translate(1060,45)" d="m0 0" fill="#FCFCFC"></path><path transform="translate(496,45)" d="m0 0" fill="#FCFCFC"></path><path transform="translate(1059,44)" d="m0 0" fill="#FCFCFC"></path><path transform="translate(495,44)" d="m0 0" fill="#FCFCFC"></path><path transform="translate(1058,43)" d="m0 0" fill="#FCFCFC"></path><path transform="translate(494,43)" d="m0 0" fill="#FCFCFC"></path><path transform="translate(1057,42)" d="m0 0" fill="#FCFCFC"></path><path transform="translate(493,42)" d="m0 0" fill="#FCFCFC"></path><path transform="translate(1056,41)" d="m0 0" fill="#FCFCFC"></path><path transform="translate(492,41)" d="m0 0" fill="#FCFCFC"></path></svg>