<svg xmlns="http://www.w3.org/2000/svg" viewBox="0 0 2048 2048" width="512" height="512"><path transform="translate(895,127)" d="m0 0h256l12 2 10 6 7 8 4 11 6 39 11 78 2 5 35 9 28 9 29 10 27 11 25 11 35 17 23 13 20 12 5-1 17-13 16-12 19-14 13-10 20-15 11-8 8-4 4-1h12l10 4 8 6 58 58 6 9 2 5 1 8-2 10-5 10-9 8-9 4h-14l-10-4-12-9-17-17-7-8-7-7-5 1-18 14-19 14-21 16-28 21-12 7-7 2h-8l-12-4-24-15-21-12-18-10-32-16-28-12-29-11-36-12-38-10-28-7-9-6-6-8-4-11-7-46-9-63-1-6-199-1-1 12-15 104-4 11-7 9-12 6-32 8-30 8-37 12-33 13-29 13-21 10-22 12-21 12-9 6-16 10-13 4h-7l-10-3-17-12-13-10-19-14-13-10-20-15-15-11-4 1-15 16h-2l-2 4-108 108h-2l-2 4-6 5 1 4 14 19 16 21 14 19 16 21 9 13 4 8 1 5v8l-3 10-12 20-8 13-10 17-6 11-17 34-13 30-13 35-11 34-9 35-5 21-4 9-7 9-10 5-27 5-50 7-41 6h-4l1 7v192l111 16 14 4 9 7 5 7 5 16 8 34 9 30 12 35 13 32 16 34 9 17 5 13v13l-3 9-7 9-10 6-6 2h-13l-10-4-8-7-8-13-8-15-13-28-11-25-10-26-14-41-11-41-2-5-17-3-70-10-34-5-11-4-9-8-6-12-1-8v-258l2-9 5-10 8-7 10-4 33-5 90-13 6-21 9-31 11-33 13-33 12-27 14-29 14-26 14-24-1-4-10-14-16-21-14-19-16-21-12-16-7-11-2-7v-11l4-11 9-10 1-2h2v-2h2v-2h2v-2h2v-2h2v-2h2v-2h2l2-4h2l2-4h2l2-4h2l2-4h2l2-4 16-16h2l2-4h2l2-4 120-120 11-7 7-2h11l11 4 15 11 84 63 5-1 22-13 22-12 38-19 31-13 29-11 30-10 44-12 6-1 7-50 10-69 4-13 7-9 10-6z"></path><path transform="translate(1748,242)" d="m0 0h143l9 2 8 5 7 7 4 8 1 4v152l-4 10-7 8-12 6-5 1h-10l-11-4-9-8-6-12-1-6v-59h-2l-751 751-10 5-6 2h-8l-10-3-9-6-90-90h-2v-2l-8 7-777 777-9 6-7 2h-14l-9-4-8-7-5-8-3-10 1-11 4-10 11-12 801-801 10-6 5-2h14l10 4 10 8 88 88h3l2-4 722-722h-49l-16-1-10-4-8-7-6-10-2-7v-8l4-12 7-9 10-6z"></path><path transform="translate(1525,1151)" d="m0 0h23l29 2 28 4 27 6 24 7 25 9 26 12 21 11 19 12 17 12 13 10 14 12 12 11 18 18 7 8 13 16 13 18 12 19 10 18 8 16 10 22 12 36 6 24 5 28 3 29v50l-2 21-4 26-6 27-9 29-11 28-8 17-11 20-6 10-8 12-12 17-13 16-9 10-7 8-18 18-8 7-11 9-20 15-20 13-23 13-27 13-24 9-26 8-21 5-28 5-30 3h-44l-32-3-27-5-28-7-24-8-20-8-25-12-20-11-16-10-18-13-16-13-20-18-14-14-7-8-9-10-12-16-12-17-15-25-12-23-12-29-9-27-7-28-5-30-3-34v-30l2-27 5-32 7-30 12-36 10-23 10-20 13-22 8-12 8-9 9-5 4-1h14l10 4 9 8 6 12 1 11-3 11-10 16-10 17-8 16-9 20-10 30-7 30-3 22-2 24v22l3 32 5 28 7 26 10 27 14 29 13 22 10 14 10 13 9 10 7 8 17 17 11 9 14 11 21 14 21 12 21 10 24 9 28 8 20 4 24 3 12 1h35l30-3 26-5 28-8 26-10 27-13 23-14 18-13 11-9 12-11 10-9 13-14 9-11 14-19 11-18 13-24 10-24 8-24 6-25 4-24 2-21v-38l-3-29-5-26-7-25-10-27-12-25-12-21-14-20-9-11-11-13-10-11-8-7-12-11-17-13-21-14-25-14-25-11-33-11-27-6-21-3-28-2h-20l-26 2-25 4-25 6-27 9-21 9-23 12-24 15-10 4-10 1-10-3-8-5-7-8-4-10v-14l4-10 7-8 13-9 18-11 23-12 22-10 25-9 24-7 27-6 29-4z"></path><path transform="translate(1533,1263)" d="m0 0 12 1 10 5 5 4 6 9 2 7v31h35l15 1 12 3 16 8 12 9 10 11 8 14 5 14 2 11v12l-4 11-6 8-8 6-9 3h-12l-10-4-8-6-6-10-3-12-3-9-4-3-40-1-1 21-1 96h41l18 3 12 5 12 7 13 12 9 13 7 16 3 17v101l-2 14-5 15-8 13-9 10-9 8-12 7-15 5-11 2-43 1v18l-1 13-4 10-8 9-10 5-5 1h-11l-11-4-9-8-6-12-1-6v-27h-44l-15-3-12-5-11-7-10-9-8-9-7-12-5-14-2-10v-14l4-11 6-8 9-6 5-2h17l9 4 8 7 4 7 3 8 2 11 2 4 3 2 5 1 37 1v-118h-43l-16-3-12-5-10-6-10-9-9-10-8-14-5-16-1-6v-110l4-16 4-10 7-11 11-12 10-8 14-7 14-4 10-1h40v-26l2-9 5-10 8-7 9-4zm-31 122-39 1-5 3-3 4-1 11v87l3 8 4 3 4 1h38v-118zm67 183-1 24v94h38l7-3 3-3 1-3 1-46v-19l-1-35-4-6-7-3z"></path><path transform="translate(1017,495)" d="m0 0h26l33 2 34 4 32 6 28 7 36 12 16 6 27 12 26 13 25 15 24 16 19 14 11 9 10 9 4 5 4 9v16l-6 12-8 7-8 4-8 2-9-1-10-4-18-14-15-11-18-12-22-13-27-14-22-10-27-10-32-10-36-8-28-4-26-2-25-1h-19l-36 2-29 4-25 5-23 6-36 12-30 13-20 10-24 14-18 12-14 10-13 10-11 9-10 9-8 7-22 22-7 8-8 9-22 28-11 16-11 17-9 15-6 11-14 29-11 27-12 36-8 32-5 27-4 38v57l4 36 6 32 8 30 11 33v14l-4 9-4 6-7 6-10 4-8 1-10-2-8-4-8-8-5-10-9-27-8-30-7-36-4-30-2-22-1-20v-34l2-33 3-26 5-29 8-34 9-29 10-27 11-25 14-28 13-22 7-11 13-19 12-16 13-16 9-11 6-7h2l2-4 28-28 8-7 14-12 17-13 15-11 24-16 25-15 27-14 21-10 27-11 22-8 43-12 28-6 32-5 33-3z"></path><path transform="translate(614,1606)" d="m0 0h10l9 3 14 8 19 12 25 14 21 11 21 10 33 14 21 8 34 11 33 9 30 7 12 6 7 8 4 9 4 24 13 91v4h200v-8l3-19 4-11 7-8 5-4 11-4h12l10 4 10 9 5 9 1 4v14l-8 54-4 9-4 6-7 6-8 3-6 1h-265l-11-4-9-8-6-12-7-46-10-71v-7l-17-4-38-11-38-13-30-12-29-13-30-15-23-13-19-11-6 1-10 8-72 54-16 11-8 3-4 1h-7l-10-3-9-6-59-59-6-10-2-5v-14l4-10 7-8 10-6 4-1h14l10 4 9 7 34 34 7-4 21-16 64-48 11-6z"></path><path transform="translate(1670,640)" d="m0 0 10 1 10 5 7 7 8 14 8 16 15 31 13 32 13 36 10 33 8 30 1 1 112 16 16 4 9 6 6 7 3 6 1 4v270l-4 10-8 9-8 4-25 5-39 5h-8l-10-4-8-7-6-9-2-6v-13l5-12 5-6 10-6 12-3 16-2h5v-200l-24-3-76-11-18-3-10-4-6-5-6-9-4-13-8-34-10-34-11-32-11-27-12-27-19-38-2-8v-7l3-10 6-9 8-6 7-3z"></path><path transform="translate(704,1373)" d="m0 0h7l10 3 11 7 16 13 16 11 22 14 19 11 16 8 27 12 15 6 30 10 32 8 34 6 30 3 15 1h57l9 3 9 6 6 8 3 7 1 5v9l-3 9-6 8-9 6-14 4-7 1h-51l-29-2-36-5-34-7-32-9-30-10-24-10-26-12-25-13-23-14-22-15-16-12-14-11-9-10-3-7-1-11 2-9 4-8 5-6 10-6z"></path><path transform="translate(1484,822)" d="m0 0h13l10 4 8 7 5 7 9 27 11 44 8 41 4 30 2 25v26l-3 23-4 12-5 9-4 5-8 5-4 1h-15l-10-4-7-6-6-10-2-7v-61l-3-34-4-27-7-32-8-27-6-20v-12l4-10 6-8 9-6z"></path></svg>