<svg xmlns="http://www.w3.org/2000/svg" viewBox="0 0 2048 2048" width="512" height="512"><path transform="translate(176,92)" d="m0 0h1689l29 1 20 3 21 6 19 8 16 9 16 12 13 12 8 8 10 13 9 14 8 16 6 15 5 18 1 5 2-1v1521l-2 1-4 17-7 20-11 21-7 11-11 14h-2l-2 4-8 8-11 9-14 10-16 9-20 8-23 6-26 3-765 1-28 10-43 13-44 11-34 7-35 6-44 6-54 5-32 2-30 1h-69l-43-2-12-3-8-6-5-6-4-9-1-8 2-9 5-9 8-7 8-4h26l30 1h62l31-1 44-3 39-4 49-7 33-6 36-8 33-9 35-11 36-14 26-12 25-13 22-14 13-10 11-10 6-5 7-8 9-12 8-16 3-11 1-8v-135l-15 12-20 14-24 14-23 12-34 15-30 11-37 12-42 11-33 7-38 7-42 6-47 5-43 3-17 1-54 1-52-1-61-4-45-5-47-7-51-10-37-9-37-11-24-8-29-11-27-12-22-11-19-11-14-9-14-10-15-12v140l3 12 8 16 6 9 11 13 8 8 14 11 12 9 23 14 27 14 25 11 30 11 30 10 34 9 57 13 11 6 6 7 4 9v15l-5 10-4 5-7 5-11 3-13-1-42-9-42-11-38-12-25-9-208-1-26-3-22-6-21-9-14-8-14-10-14-12-7-7-9-11-10-14-9-16-8-20-5-17-3-13v-1509l4-15 6-20 8-18 8-14 8-11 9-11 16-16 13-10 18-11 19-9 20-6 24-4zm0 61-20 1-16 3-16 6-16 9-13 11-9 9-10 14-8 16-4 11-3 18-1 16v198l1924 1 3-1v-214l-4-20-6-15-7-13-9-12-12-12-14-10-16-8-16-5-11-2-63-1zm-115 373-1 71v1125l2 21 4 15 6 15 9 14 11 13 10 9 15 10 11 5 15 5 18 3h96l-12-12-8-7-7-7-7-8-8-10-11-17-9-19-5-16-3-16-1-208v-388l1-175 3-17 7-21 10-19 10-14 11-13v-2h2l7-8 11-10 14-11 14-10 14-9 17-10 27-14 30-13 30-11 27-9 44-12 36-8 50-9 36-5 47-5 46-3 26-1h80l54 3 46 4 46 6 46 8 38 8 38 10 38 12 27 10 26 11 29 14 13 7 21 13 13 9 13 10 14 12 15 15 11 14 10 15 10 21 5 16 3 19v763l-3 20-5 16-7 16-10 17-11 14-11 12-9 9-14 11-1 2h654l15-2 14-4 16-7 14-9 10-8 7-8 8-10 9-16 6-17 3-18v-1207zm645 249-42 2-40 3-42 5-39 6-45 9-43 11-35 11-30 11-23 10-29 14-27 16-17 13-13 11-9 9-8 10-9 14-5 11-3 12v17l3 12 5 12 7 11 8 10 8 9h2v2l8 7 17 13 15 10 21 12 29 14 24 10 34 12 29 9 41 10 39 8 51 8 47 5 42 3 51 2h33l52-2 42-3 46-5 51-8 39-8 47-12 43-14 28-11 26-12 16-8 19-11 19-13 11-9 10-9 11-11 11-16 7-15 3-15v-9l-3-16-5-12-9-14-11-13-9-9-11-9-18-13-15-9-16-9-25-12-19-8-35-13-32-10-48-12-40-8-47-7-47-5-46-3-24-1zm-459 303v141l3 12 8 16 7 11 12 13 8 8 14 11 14 10 20 12 27 14 25 11 38 14 40 12 41 10 47 9 42 6 37 4 55 4 20 1h78l52-3 35-3 48-6 47-8 40-9 31-8 35-11 32-12 27-12 16-8 15-8 19-12 16-12 14-12 4-4v-2l3-1 11-14 8-14 4-11 2-13v-135l-5 2-12 10-24 16-21 12-23 12-32 14-30 11-27 9-36 10-39 9-42 8-48 7-36 4-38 3-36 2-36 1h-25l-38-1-53-3-56-6-42-6-52-10-31-7-42-12-36-12-30-12-24-11-27-14-24-15-14-10-14-11zm0 249v140l3 12 4 10 10 16 9 10 7 8 8 7 17 13 17 11 21 12 23 11 23 10 32 12 44 13 36 9 53 10 42 6 51 5 45 3 40 1h25l38-1 61-4 52-6 49-8 38-8 32-8 40-12 27-10 31-13 17-8 23-13 17-11 17-13 12-11 10-10 9-13 8-16 3-11 1-7v-136l-5 3-20 15-20 13-18 10-21 11-32 14-26 10-37 12-37 10-40 9-44 8-42 6-39 4-57 4-23 1h-72l-43-2-31-2-46-5-49-7-56-11-29-7-42-12-35-12-27-11-26-12-25-13-21-13-18-13-10-8z"></path><path transform="translate(1611,589)" d="m0 0 24 1 24 3 25 6 23 8 19 9 9 8 5 10 1 4v9l-4 11-8 9-7 4-9 2h-7l-14-5-15-6-19-6-24-4h-37l-21 3-19 5-16 6-17 8-14 9-16 12-16 15-12 14-10 15-7 12-8 18-8 24-4 23-1 14v16l2 20 5 23 7 20 9 19 10 16 11 14 11 12 13 12 17 12 16 9 17 8 15 5 22 5 15 2h32l25-4 21-6 19-8 17-9 17-12 7-6h2v-2l8-7 7-7 9-11 7-10 9-15 9-19 7-21 5-26 1-14v-22l-3-22-5-20-7-19-7-17-1-10 4-12 9-10 8-4 3-1h14l9 4 8 7 6 10 8 18 8 25 5 23 3 26v32l-3 25-5 23-10 30-9 19-8 14-12 18-10 13-11 12-16 16-11 9-17 12-20 12-21 10-30 10-29 6-17 2h-39l-24-3-25-6-21-7-24-11-17-10-12-8-13-10-10-9-8-7-10-10-9-11-10-13-12-19-12-23-8-20-7-25-4-21-2-18v-32l3-26 5-23 8-24 9-20 9-17 11-17 13-17 12-13 14-14 11-9 15-11 20-12 27-13 24-8 22-5 22-3z"></path><path transform="translate(174,217)" d="m0 0h141l9 3 10 9 5 9 1 4v11l-4 10-8 9-8 4-12 2h-123v63h435v-62l-172-1-10-2-9-6-7-9-3-8v-11l4-11 7-8 10-5 3-1h186l12 3 14 7 10 9 7 8 6 12 3 11 1 8v66l-2 16-7 16-8 10-10 9-12 6-11 3-6 1h-448l-11-2-11-5-11-7-8-8-8-13-4-11-1-4-1-29v-18l1-38 4-13 6-11 9-10 8-7 15-7z"></path><path transform="translate(1571,217)" d="m0 0h23l15 3 13 5 14 8 11 9 10 11 8 13 6 13 4 15 1 9v13l-2 13-5 16-9 17-11 13-3 3h-2v2l-10 7-15 8-16 5-11 2h-19l-18-4-15-6-11-7-12-10-9-11-8-13-5-11-4-16-1-9v-11l3-18 6-16 6-11 9-12 8-8 11-8 15-8 12-4zm5 61-10 4-7 6-5 8-2 6v15l6 12 7 7 9 4 5 1h9l11-4 10-9 4-8 2-11-2-10-5-10-8-7-10-4z"></path><path transform="translate(1820,217)" d="m0 0h23l15 3 17 7 12 8 10 9 7 7 10 15 6 14 4 18v23l-4 18-8 17-9 13-12 12-10 7-16 8-13 4-12 2h-18l-16-3-15-6-12-7-11-9-11-12-8-13-5-11-4-14-1-7v-21l4-18 5-12 6-11 7-9 3-4h2v-2l11-9 13-8 15-6zm5 61-9 3-10 9-4 8-2 7v9l4 11 7 9 9 5 7 2h9l11-4 8-6 6-9 2-7v-12l-4-10-9-10-8-4-4-1z"></path><path transform="translate(1323,217)" d="m0 0h23l18 4 14 6 12 8 10 8 9 11 7 11 6 13 4 14 1 6v23l-4 17-7 16-7 11-9 10-10 9-13 8-15 6-13 3-6 1h-18l-15-3-14-5-14-8-11-9-7-7-10-14-7-15-4-14-1-7v-21l3-15 5-13 9-16 11-12 7-7 14-9 14-6zm5 61-10 4-9 8-5 10-1 5v9l3 9 6 9 8 6 10 3h9l11-4 8-6 6-9 2-7v-11l-4-11-7-8-8-5-6-2z"></path><path transform="translate(333,1693)" d="m0 0h15l21 9 19 8 27 10 31 10 37 10 50 11 10 4 9 8 4 8 2 11-3 12-6 8-7 6-7 3h-17l-42-9-42-11-35-11-28-10-33-14-14-7-7-6-6-11-1-4v-10l4-11 7-8z"></path><path transform="translate(334,1196)" d="m0 0h13l13 5 25 11 32 12 39 12 40 10 41 9 9 5 7 8 4 9 1 7-2 11-7 11-9 6-10 3-12-1-42-9-35-9-33-10-29-10-30-12-22-10-9-7-6-10-2-6v-10l4-10 4-6 8-6z"></path><path transform="translate(335,1444)" d="m0 0h10l12 4 29 13 36 13 26 8 29 8 35 8 23 5 10 5 5 5 6 9 2 12-2 9-6 10-7 6-10 4h-13l-50-11-41-11-35-11-29-11-26-11-16-8-7-7-5-10-1-4v-9l4-11 8-9 9-5z"></path><path transform="translate(1608,714)" d="m0 0h12l10 4 8 7 5 9 2 11v49l-1 13h47l9 3 8 5 7 10 2 7v12l-4 9-5 7-10 6-9 2h-79l-10-3-8-6-6-9-2-6-1-13v-86l2-11 5-9 8-7z"></path><path transform="translate(1018,1240)" d="m0 0h12l10 4 8 7 6 12 1 9-3 12-6 8-6 5-7 3-6 1h-8l-11-4-9-8-5-10-1-4v-9l4-11 9-10 8-4z"></path><path transform="translate(1018,1737)" d="m0 0h12l10 4 8 7 5 9 2 11-2 10-5 9-8 7-11 4h-10l-11-4-8-7-6-11-1-5v-8l4-11 8-9 9-5z"></path><path transform="translate(1022,1488)" d="m0 0 10 1 10 5 8 8 4 9 1 9-2 10-5 8-9 8-8 3h-15l-10-5-5-5-4-5-4-11v-8l4-11 6-8 10-6z"></path><path transform="translate(1144,1444)" d="m0 0h9l11 4 9 8 5 10 1 4v9l-4 11-7 8-8 5-8 2h-9l-11-4-8-7-5-9-1-4v-13l4-10 6-7 8-5z"></path><path transform="translate(1140,1693)" d="m0 0h16l10 5 5 5 4 5 4 11v8l-3 10-6 8-9 6-12 3-12-2-8-5-7-8-4-9v-14l4-9 7-8 6-4z"></path><path transform="translate(1141,1196)" d="m0 0h14l10 4 5 4 6 9 3 9v9l-4 10-6 8-8 5-6 2h-14l-10-4-8-8-4-8-1-3v-14l4-9 7-8 8-5z"></path></svg>