<svg xmlns="http://www.w3.org/2000/svg" viewBox="0 0 2048 2048" width="512" height="512"><path transform="translate(1567,831)" d="m0 0h255l13 2 8 4 7 7 5 9 1 3 1 34v67l-1 43-4 10-6 7-7 4-10 3h-11l-10-3-9-7-5-8-2-6-1-14v-90h-190v831l-1 192h192l-1-2v-797l2-11 5-10 8-7 8-4 5-1h10l11 4 8 6 6 9 2 6 1 15v751l-1 41h95l14 2 10 6 7 9 3 10v13l-5 12-8 8-9 4-6 1h-1869l-11-4-5-4-6-8-3-8v-15l4-10 7-8 10-6 10-2h97v-290l2-9 5-8 4-5 10-6 11-2h254l11 1 9 4 8 7 5 7 2 7v294h127v-543l2-11 4-8 3-4h2v-2l10-6 10-2h255l11 1 9 4 9 8 5 10 1 4v549h127v-802l2-9 6-9 8-7 9-4 8-1h252l15 2 10 6 7 8 4 10v806h127v-1057l2-9 4-8 5-5 5-4 8-4zm-414 321-1 3v764l189 1 2-1v-767zm-448 256-1 32v479l189 1 3-1-1-511zm-448 256-1 3v252l189 1 2-1v-255z"></path><path transform="translate(1567,191)" d="m0 0h256l12 2 8 4 7 7 5 9 1 4 1 18v220l-1 32-4 10-8 9-12 5h-17l-9-4-8-7-5-9-2-14v-165h-2l-9 11-14 17-36 42-11 12-7 8-24 26-22 24-10 10-1 2h-2l-2 4-26 26-6 7h-2l-2 4-8 8h-2l-2 4-8 7-28 28-8 7-9 9h-2v2l-8 7-7 7-8 7-16 15-8 7-12 11-8 7-14 12-11 10-11 9-14 12-13 11-11 9-17 14-14 11-17 14-13 10-16 12-14 11-38 28-18 13-17 12-16 11-20 14-35 23-20 13-21 13-19 12-20 12-24 14-26 15-46 25-32 17-40 20-20 9-14 7-20 9-44 19-42 17-40 15-49 17-47 15-43 12-46 12-54 12-53 10-52 8-49 6-44 4-48 3-25 1h-50l-11-4-6-5-5-7-3-8v-16l4-10 8-9 7-4 11-2 44-1 45-2 51-4 52-6 53-8 44-8 54-12 52-13 48-14 25-8 36-12 31-11 37-14 37-15 28-12 27-12 30-14 29-14 30-15 19-10 26-14 21-12 25-14 17-10 46-28 17-11 22-14 33-22 25-17 20-14 36-26 19-14 13-10 17-13 18-14 16-13 14-11 22-18 26-22 11-9 10-9 11-9 12-11 8-7 10-9h2v-2l11-9 9-9 8-7 6-6h2v-2l8-7 8-8 8-7 8-8 8-7 70-70 7-8 12-12 1-2h2l2-4 9-9 7-8 6-7h2l2-4 7-8h2l2-4 3-4h2l2-4 13-14 1-2h2l2-4 9-10 9-11 10-11 11-14 11-13 9-12h-186l-10-3-9-7-6-10-2-7v-9l3-10 6-9 9-6 7-3z"></path><path transform="translate(464,63)" d="m0 0h29l29 2 30 4 28 6 25 7 26 9 28 12 19 10 21 12 22 15 12 9 10 8 13 11 12 11 20 20 7 8 11 13 14 19 12 18 9 15 12 22 9 19 10 25 9 28 7 28 5 30 2 16 1 14v52l-2 22-4 27-6 28-8 27-9 25-12 27-11 21-10 17-10 15-10 14-11 14-12 14-15 16-11 11-8 7-10 9-14 11-11 8-21 14-15 9-29 15-25 11-36 12-28 7-27 5-25 3-14 1h-44l-26-2-32-5-30-7-29-9-32-13-21-10-18-10-19-12-20-14-16-13-8-7-10-9-15-14-14-15-12-14-13-17-13-19-11-18-12-22-11-23-11-29-9-30-6-28-4-26-2-21-1-18v-23l2-29 4-30 6-29 10-34 9-24 12-27 12-22 10-17 11-16 4-5 9-6 7-2h10l12 4 10 9 6 10 1 4v11l-4 10-7 12-7 11-9 16-8 15-10 24-7 19-7 25-6 30-3 29-1 17v18l3 34 5 30 7 27 9 26 10 23 10 20 12 20 12 17 10 13 12 14 15 16 14 13 11 9 17 13 20 13 21 12 23 11 20 8 26 8 25 6 26 4 24 2h40l29-3 27-5 23-6 24-8 19-8 25-12 22-13 16-11 13-10 13-11 12-11 4-2 2-4h2l2-4 8-8 9-11 12-15 16-24 10-17 11-23 10-24 8-26 6-26 4-25 2-22v-43l-3-29-5-27-6-23-8-24-10-24-11-22-12-20-11-16-11-14-9-11-2-4h-2l-7-8-16-16-11-9-16-13-27-18-18-10-16-8-18-8-25-9-22-6-24-5-22-3-30-2h-16l-30 2-27 4-27 6-20 6-21 8-20 9-25 13-17 11-14 8-6 2h-11l-10-4-9-8-6-10-2-7v-9l3-9 4-6 7-7 15-10 15-9 24-13 24-11 24-9 29-9 25-6 24-4 28-3z"></path><path transform="translate(474,191)" d="m0 0h12l11 4 7 5 6 9 2 7 1 42 1 2 15 5 19 10 16 12 16 16 9 13 8 14 7 19 3 13 1 8v22l-4 10-6 7-7 4-9 3h-13l-11-4-8-7-6-12-3-23-5-15-7-11-6-7-10-7-12-6-15-3h-13l-17 4-11 6-11 9-6 8-7 14-3 13v19l3 12 7 14 9 10 9 7 10 5 10 3 5 1 25 2 20 4 16 6 17 9 13 10 12 11 10 12 8 13 8 16 6 20 2 13v29l-3 15-5 16-8 17-7 11-12 14-9 9-15 11-15 8-15 6-6 2v25l-1 19-4 10-6 7-7 4-9 3h-13l-11-4-8-7-6-12-1-7-1-38-25-10-16-10-14-12-9-9-11-15-7-12-6-15-5-19-2-17 1-14 3-8 4-6 7-6 9-4h17l10 4 8 7 5 9 2 13 2 15 5 14 7 11 10 10 12 7 12 4 5 1h19l15-4 11-6 10-8 8-10 5-10 4-15v-18l-3-13-7-14-9-11-10-7-10-5-11-3-7-1-18-1-17-3-16-5-13-6-14-8-11-9-6-5-7-8-8-10-10-16-6-14-5-17-2-11-1-11v-10l2-18 4-16 8-19 8-14 11-14 11-11 16-12 19-10 15-5h2v-39l3-12 6-9 10-7z"></path></svg>