<svg xmlns="http://www.w3.org/2000/svg" viewBox="0 0 2048 2048" width="512" height="512"><path transform="translate(455,50)" d="m0 0h1135l19 2 17 5 16 8 12 8 10 8v2h2v2h2l11 14 9 15 6 15 5 24v609l-1 1132-3 18-5 15-7 14-8 12-11 12-10 9-14 9-15 7-18 5-15 2h-1137l-20-3-15-5-16-8-11-8-10-9-11-12-10-16-7-16-4-16-2-23-1-1167v-551l2-16 4-18 7-17 8-13 9-12 8-8 13-10 14-8 14-6 17-4zm10 63-16 2-10 4-11 8-8 10-4 8-3 10-1 9v217l9 1h1214v-227l-6-16-8-11-9-7-13-6-5-1-14-1zm-51 332-1 1-1 21v247h1223v-269zm1220 331-1222 1v1113l3 12 5 10 9 10 8 6 11 5 12 2h1128l14-3 12-6 11-10 6-10 4-12 1-10v-1107z"></path><path transform="translate(1313,857)" d="m0 0 13 2 10 6 6 8 4 11v89l6 2 14 8 11 9 5 4v2h2l9 11 10 15 4 8 22 1h48l20 1 9 3 10 9 5 9 1 4v12l-4 10-8 9-10 5-7 1h-77v52h77l9 2 9 5 8 10 3 8v13l-4 10-7 8-6 4-14 3h-75v55l79 1 10 3 9 7 6 9 2 6v12l-3 8-6 9-9 6-7 2-69 1h-11l-1 52h81l9 3 10 9 5 9 1 4v12l-3 8-6 8-8 6-5 2-6 1h-78v45l1 7h64l18 1 10 5 5 5 4 5 4 9v13l-4 10-8 9-8 4-10 2h-76v51l79 1 10 3 9 7 6 9 2 6v13l-4 9-7 9-10 5-13 2h-84l-2 6-7 11-10 13-12 12-14 10-12 7-1 94-3 9-6 9-9 6-10 3-12-1-10-5-8-9-4-8-1-10v-78l-55 1-1 85-4 10-8 9-8 4-9 2-11-1-10-5-8-9-4-9-1-29v-57l-51-1v30l-1 57-6 12-9 8-13 4-12-1-8-4-6-5-6-10-2-6v-85h-52v83l-3 10-7 10-10 6-8 2-12-1-10-5-7-7-5-10-1-7v-81l-51 1-1 84-4 11-7 8-9 5-9 2-11-1-10-5-8-9-4-9-1-12v-74h-55l-1 85-4 10-8 9-8 4-9 2-11-1-8-4-7-6-6-11-1-4-1-95-15-9-10-8-15-15-7-10-7-12-2-4-87-1-12-2-10-6-6-8-4-9v-13l4-10 7-8 8-5 7-2h84v-52h-83l-10-3-8-6-6-8-3-8v-13l4-10 7-8 11-6 10-1h42l36 1v-53h-84l-10-3-10-9-6-12v-14l4-10 6-7 10-6 4-1h86v-53h-87l-10-5-5-4-6-9-2-6v-13l4-10 7-8 8-5 6-2h85v-56h-82l-11-3-9-7-6-9-2-6v-13l4-10 7-8 9-5 8-2h82v-52h-83l-10-3-6-4-7-8-4-9v-14l4-10 8-9 11-5 11-1h73l12-1 9-16 8-11 11-12 13-10 15-9 1-91 4-11 6-7 10-6 3-1h15l10 4 8 7 5 10 1 3v82h56v-74l1-9 6-12 8-7 9-4h15l10 4 6 5 6 9 2 7v81h52v-78l4-13 9-10 8-4 3-1h15l9 4 8 7 5 8 2 7v80l51-1 1-79 3-9 6-9 9-6 5-2h15l10 4 8 7 5 9 1 4v82l52-1v-28l1-54 6-12 8-7 9-4h15l10 4 7 6 5 8 2 6v82h56v-75l2-11 6-10 7-6 9-4zm-547 169-19 1-21 5-9 6-5 4-9 14-3 9-1 7v564l2 10 7 14 6 7 11 8 10 4 10 2h557l13-3 14-7 11-10 7-11 6-25v-81l-3-11v-11l3-10v-83l-3-10v-12l3-10v-83l-3-10v-12l3-10v-86l-3-11v-11l3-10v-83l-3-10-1-13-4-9-8-10-11-7-6-2h-10l-10-3-16-1-74 1-10 3h-10l-9-3h-86l-9 3h-11l-9-3-82-1-14 4h-9l-13-4-82 1-10 3h-10l-9-3-49-1z"></path><path transform="translate(899,1128)" d="m0 0h12l10 4 12 8 187 132 20 14 14 10 34 24 16 12 7 8 4 10v12l-4 9-6 8-15 11-51 36-20 14-17 12-18 13-13 9-20 14-17 12-18 13-13 9-20 14-17 12-23 16-14 10-9 6-8 3h-14l-10-4-9-9-4-9-1-4v-404l4-10 8-9 9-5zm37 91v273l7-4 18-13 20-14 17-12 14-10 17-12 20-14 14-10 17-12 18-13 19-13 11-8v-3l-187-132z"></path><path transform="translate(498,214)" d="m0 0h649l10 2 8 4 5 5 4 5 4 10v11l-3 8-6 9-9 6-6 2-9 1h-648l-9-2-8-5-8-9-4-11v-8l3-10 6-8 7-6 7-3z"></path><path transform="translate(497,546)" d="m0 0h651l10 2 10 6 6 8 3 6 1 4v11l-3 8-6 8-7 6-9 3-23 1h-624l-14-1-9-4-8-7-6-11-1-5v-7l3-10 4-6 5-5 8-5z"></path><path transform="translate(1502,214)" d="m0 0h48l9 2 9 5 7 8 4 9 1 10-4 13-9 10-8 4-11 2h-48l-11-3-9-7-6-9-2-6v-12l4-11 6-7 7-5 6-2z"></path><path transform="translate(1501,546)" d="m0 0h50l9 2 8 5 8 9 3 8 1 10-3 10-6 9-6 5-6 3-17 2h-35l-15-2-10-6-6-8-4-9v-12l4-11 7-8 8-5z"></path><path transform="translate(1302,214)" d="m0 0h46l10 2 8 4 7 7 5 10 1 4v10l-4 10-5 7h-2v2l-9 5-12 2h-47l-9-2-8-5-8-9-3-7-1-10 3-12 6-9 9-6 5-2z"></path><path transform="translate(1299,546)" d="m0 0h52l10 3 6 4 5 5 5 8 2 7v9l-4 11-9 10-8 4-5 1-14 1h-33l-15-2-8-5-8-9-3-7-1-10 2-10 6-10 9-7 5-2z"></path></svg>