<svg xmlns="http://www.w3.org/2000/svg" viewBox="0 0 2048 2048" width="512" height="512"><path transform="translate(1535,615)" d="m0 0h324l9 3 7 6 5 10 1 594 4 7 12 19 12 21 8 16 10 21 13 34 8 26 7 28 6 34 3 26 1 14v57l-2 26-5 34-8 36-9 30-10 27-9 21-8 17-12 22-14 23-14 20-16 21-12 14-22 24-17 16-11 10-11 9-18 14-16 11-19 12-19 11-23 12-27 12-36 13-29 8-28 6-32 5-35 3h-47l-36-3-36-6-30-7-27-8-19-7-22-9-24-11-22-12-20-12-22-15-17-13-10-8-14-12-16-15-16-16-7-8-10-11-11-14-15-20-15-23-13-22-11-21-13-29-10-27-9-29-7-30-5-30-3-27-1-13v-54l3-32 4-27 5-24 6-24 12-36 12-29 1-407 3-8 4-6 5-4 4-2 9-1h316l9 2 8 6 5 8 1 3v128l34-4 13-1 31-1 31 1 5 1v-384l4-10 8-7zm30 49v361l39 9 27 8 28 10 25 11 16 8 21 11 18 11 18 12 19 14 14 11 10 9 8 7 16 15 7 6v-503zm-476 261-2 1v291l5-4 9-12 11-13 7-8 9-10 28-28 11-9 13-11 19-14 13-9 19-12 21-12 15-8 29-13 27-10 29-9 1-1v-109zm362 142-30 3-30 5-32 8-33 11-26 11-19 9-23 13-15 9-16 11-17 13-11 9-11 10-8 7-20 20v2l-3 1-7 8-14 17-14 19-11 17-8 13-7 12-8 16-12 26-8 21-8 26-6 23-6 31-4 38v54l4 37 5 28 7 28 12 36 12 28 12 24 16 27 13 19 13 17 9 11 10 11 7 8 22 22 11 9 9 8 17 13 16 11 21 13 18 10 22 11 32 13 28 9 24 6 32 6 28 3 14 1h45l33-3 30-5 26-6 29-9 27-10 26-12 21-11 23-14 16-11 16-12 13-11 11-9v-2l4-2 24-24v-2h2l6-7v-2h2l22-28 16-24 12-20 13-25 12-28 6-17 8-25 7-29 4-23 3-25 1-14v-53l-3-31-5-30-9-36-9-27-11-27-13-27-12-21-14-22-12-16-8-10-9-11-11-12-16-17-8-7-13-12-14-11-13-10-27-18-19-11-25-13-21-9-24-9-26-8-31-7-24-4-30-3z"></path><path transform="translate(1691,59)" d="m0 0h15l20 2 18 4 18 6 18 8 16 10 12 9 10 9 6 5 7 8 11 14 11 18 8 17 7 21 4 21 1 10v27l-2 18-5 20-7 19-11 21-12 17-10 11-7 8-13 11-13 9-14 8-17 8-19 6-20 4-17 2h-18l-23-3-23-6-15-6-16-8-18-12-13-11-3-1-9 7-14 11-11 9-13 10-11 9-14 11-15 12-14 11-16 13-14 11-16 13-17 13-12 10-9 7-15 12-4 3 1 5 10 21 6 19 4 19 1 7v37l-4 22-4 14-6 16-8 16-6 10-12 16-12 13-13 12-18 12-14 8-19 8-21 6-18 3-10 1h-22l-27-4-23-7-20-9-18-11-16-13-9-8-7-8-12-15-12-20-7-15-6-18-5-23-1-8v-32l4-24 6-20 2-6-15-9-53-31-26-15-27-16-52-30-5-2-9 10-5 6h-2v2l-8 7-18 13-18 10-19 8-22 6-18 3-21 1-17-1-25-5-21-7-19-9-11-7-16-12-12-11-8-8-9 5-20 13-22 14-20 13-25 16-20 13-25 16-23 15-17 11-5 2 7 20 5 18 3 17 1 22-1 17-5 26-6 18-8 18-11 18-11 14-14 15-13 11-18 12-15 8-19 7-19 5-17 3-13 1h-14l-19-2-22-5-20-7-21-11-12-8-10-8-12-11-8-8-13-17-9-15-8-16-8-24-4-20-1-9v-28l4-26 7-23 12-25 10-15 8-11h2l2-4 16-16 13-10 18-11 16-8 21-7 19-4 21-2h11l23 2 19 4 22 8 16 8 16 10 14 11 5 4v2l4 2 4 4v2h2v2h5l25-16 26-17 25-16 51-33 22-14 20-13 13-8h2l-6-15-6-20-3-17-1-9v-27l3-22 6-22 6-15 11-20 9-13 9-11 9-10h2v-2l11-9 15-11 18-10 19-8 23-6 23-3h22l23 3 20 5 20 8 15 8 15 10 11 9 10 9 11 12 12 17 8 14 8 17 6 19 4 20 1 9v30l-3 22-6 22-2 4v4l21 12 17 10 27 16 21 12 24 14 26 15 24 14 15 9 4-2 14-15 11-10 14-10 17-10 18-8 20-6 14-3 22-2 24 1 19 3 20 6 15 6 19 10 14 10 13 11h5v-2l9-7 14-11 15-12 14-11 16-13 13-10 16-13 14-11 25-20 14-11 16-13 14-11 15-12 7-5-2-5-9-19-7-21-4-20-1-8v-32l3-20 5-19 10-24 9-16 12-16 9-10 14-14 18-13 17-10 19-8 21-6 18-3zm4 49-20 2-19 5-16 7-13 8-13 10-12 12-10 14-8 14-6 15-4 16-2 12v24l4 21 7 19 9 17 11 14 13 13 14 10 14 8 15 6 16 4 19 2h11l16-2 19-5 18-8 11-7 13-10 14-14 10-14 8-16 5-13 4-17 1-8v-24l-3-18-5-16-9-19-9-13-9-10-5-5-10-9-18-11-19-8-17-4-18-2zm-970 103-15 3-18 6-17 9-12 9-10 9-7 7-10 14-8 14-6 15-4 16-2 13v22l4 22 7 19 8 15 9 12 9 10 7 7 14 10 10 6 20 8 16 4 23 2 22-2 21-6 14-6 13-8 13-10 14-14 11-16 8-16 5-14 4-21v-27l-4-20-5-15-8-16-8-12-8-10-7-7-10-8-14-9-17-8-21-6-7-1zm481 278-17 3-18 6-16 8-14 10-13 12v2h-2l-10 13-8 13-8 19-5 21-1 10v19l3 19 5 16 7 15 7 12 9 11 5 6 8 7 12 9 16 9 14 6 16 4 15 2h20l22-4 19-7 17-9 13-10 11-10 11-14 8-13 7-16 5-18 2-13v-24l-2-13-4-15-6-15-8-15-10-13-7-8-11-9-10-7-10-6-20-8-16-4-8-1zm-958 30-16 3-15 5-16 8-11 7-13 11-9 9-12 17-8 16-5 14-4 17-1 10v17l3 21 7 21 9 17 9 12 9 10 7 7 14 10 14 8 15 6 16 4 18 2h11l22-3 16-5 16-7 16-10 11-10 11-11v-2h2l12-19 7-16 5-17 2-13v-26l-2-13-4-15-6-15-8-14-9-12-10-11-14-11-15-9-16-7-14-4-12-2z"></path><path transform="translate(1463,1133)" d="m0 0h33l25 2 28 4 30 7 33 11 26 11 15 8 11 6 20 12 18 13 10 8 14 12 8 7 20 20 9 11 11 13 13 18 13 21 8 14 11 23 11 28 8 26 6 27 4 27 2 26v32l-3 33-5 28-7 28-9 26-11 26-13 25-13 21-10 14-13 17-9 10-7 8-20 20-8 7-16 13-18 13-19 12-18 10-27 13-24 9-19 6-25 6-30 5-20 2-30 1-34-2-23-3-29-6-27-8-24-9-26-12-17-9-22-14-17-12-11-9-14-12-15-14-14-15-9-11-12-15-11-16-13-21-14-27-9-21-12-36-6-26-4-24-2-19-1-19v-22l2-28 4-27 6-27 8-26 9-24 14-29 12-21 12-18 9-12 10-13 12-13 1-2h2l2-4 16-16 8-7 14-12 18-13 15-10 17-10 23-12 21-9 23-8 21-6 23-5 26-4zm-13 50-33 5-25 6-30 10-19 8-1 3 14 25 4 10v9l-5 10-7 6-9 3-9-1-8-4-7-8-14-24-3-2-13 9-14 12-8 7-4 3v2l-4 2-4 4v2h-2l-7 8-9 10-13 17-4 7 8 5 20 12 5 4 5 8 1 4v9l-5 10-7 6-10 3-12-2-18-10-10-6-4 2-11 28-8 25-6 27-4 30v2h34l8 2 8 5 5 8 1 3v12l-5 10-5 4-7 3-16 1h-22l-1 2 4 30 5 23 6 21 10 27 5 11 4-1 25-14 8-3h8l10 4 5 5 4 7 1 4v8l-6 12-10 7-21 12-2 3 10 14 11 13 7 8 12 13 4 2v2l8 7 13 11 14 10 2 2h3l13-23 7-10 9-5 9-1 8 2 6 4 5 6 3 7v9l-4 10-9 16-5 8 1 3 20 9 30 10 20 5 38 6h4l1-11v-19l2-12 6-9 7-4 4-1h10l8 3 6 5 4 9 1 7 1 32 24-3 26-5 28-8 28-11 7-4-2-5-6-11-9-17-1-10 3-9 7-8 6-3 11-1 9 3 6 5 10 16 8 14h4l12-9 11-9 3-2v-2l4-2 17-16 1-3h2l7-8 11-13 12-16-2-4-26-15-3-3h-2l-2-4-4-10v-7l4-10 3-3v-2l5-2 7-3h8l9 3 25 14 4 1 10-24 9-27 6-25 4-26v-12h-30l-11-2-6-4-5-6-3-7v-10l4-9 5-5 7-4 39-1v-10l-5-32-5-21-11-33-7-17-4-1-26 15-9 3-10-1-8-4-6-7-3-9 1-10 4-8 7-6 25-14 2-1-1-4-14-19-12-13-7-8-11-11-8-7-13-11-15-11-4 2-15 26-4 5-10 5-8 1-10-3-7-6-4-8-1-9 3-10 16-28-14-7-24-9-24-7-25-5-22-3h-5l-1 28-1 12-6 10-6 4-7 2h-7l-9-3-8-7-3-6-1-9v-29l-1-2z"></path><path transform="translate(581,758)" d="m0 0h321l8 2 8 6 5 8 1 3v888l-5 10-7 6-6 2-14 1h-308l-10-2-10-9-3-6-1-6v-882l3-8 5-7 8-5zm28 49v828h266v-828z"></path><path transform="translate(99,973)" d="m0 0h330l6 3 5 4 5 8 1 3v673l-3 8-5 6-7 4-3 1-12 1h-310l-9-2-8-6-6-9-1-6v-668l4-10 7-7zm34 48-2 2v612h266v-613l-1-1z"></path><path transform="translate(1478,1299)" d="m0 0 10 1 8 5 6 7 2 5 1 7v155l16-1h69l18 1 9 5 6 8 2 5v12l-5 10-6 5-8 3-28 1h-91l-13-1-7-3-5-4-5-8-1-4-1-22v-161l2-11 6-8 5-4z"></path></svg>