<svg xmlns="http://www.w3.org/2000/svg" viewBox="0 0 2048 2048" width="512" height="512"><path transform="translate(1115,88)" d="m0 0h52l24 2 28 4 29 6 25 7 29 10 23 10 25 12 24 14 17 11 18 13 16 13 14 12 13 12 14 14 7 8 9 10 11 14 11 15 14 21 13 22 13 25 12 28 12 36 8 31 6 36 3 34v47l-2 25-2 15 31-3h47l29 3 29 5 27 7 23 8 24 10 25 12 22 13 16 11 16 12 11 9 15 13 20 20 7 8 11 13 12 16 10 15 12 20 12 23 10 22 9 25 8 29 6 31 3 26 1 17v30l-2 29-5 31-6 26-6 19-7 20-9 21-12 24-12 20-11 16-12 16-9 11-9 10-2 3h-2l-2 4-14 14h-2v2l-8 7-12 10-13 10-17 12-25 15-25 13-24 10-20 7-25 7-24 5-28 4-28 2h-35v371h49l19 1 8 4 5 6 2 6v17l-4 29-6 23-8 20-8 16-10 17-14 18-5 6h-2l-2 4-6 6h-2v2l-8 7-16 12-20 12-21 10-21 7-23 5-14 2-15 1h-930l-25-2-21-4-19-6-22-9-18-10-12-8-14-11-16-15-10-11-14-19-11-19-8-17-8-24-5-23-2-16v-21l3-7 5-5 6-3 11-1h57l1-371h-82l-24-2-27-4-25-6-22-7-21-8-29-14-20-12-20-14-16-13-12-11-13-12-7-8-11-12-15-20-14-21-12-22-11-23-9-24-7-25-6-31-3-27v-46l3-27 6-31 8-27 10-26 14-29 12-20 14-20 13-16 9-11h2v-2h2l2-4 12-12h2v-2l11-9 8-7 16-12 17-11 21-12 16-8 19-8 27-9 24-6 28-5-1-19v-35l3-26 4-20 8-26 9-21 8-16 11-18 11-15 11-13 7-8 16-16 11-9 15-11 19-12 23-12 25-10 21-6 26-5 19-2h34l27 3 27 6 26 9 20 9 5 3h2l7-23 12-31 11-24 10-19 12-20 15-22 9-12 9-11 11-13 12-13 21-21 11-9 13-11 19-14 10-7 19-12 23-13 29-14 26-10 24-8 32-8 28-5 24-3zm0 40-36 4-26 5-30 8-31 11-31 14-22 12-19 12-17 12-13 10-13 11-10 9-7 6v2l-4 2v2l-4 2-7 8-12 13-11 14-12 16-11 17-9 15-12 23-8 17-10 26-8 26-7 26-5 8-8 4h-10l-12-6-15-9-23-11-24-8-23-5-19-2h-30l-19 2-23 5-17 5-26 11-21 12-18 13-11 9-8 8-2 1v2h-2l-7 8-9 10-14 20-10 18-7 15-7 20-4 15-3 14-2 21v26l3 27 2 11v11l-5 8-6 4-20 3-27 4-22 5-25 8-26 11-19 10-19 12-19 14-11 10-8 7-16 16-9 11-10 12-12 18-10 17-8 16-8 18-10 30-5 20-4 26-1 12v42l3 26 5 25 8 27 8 20 13 27 13 21 12 16 8 10 11 12 2 3h2l2 4h2v2l8 7 12 11 19 14 17 11 22 12 20 9 22 8 23 6 21 4 31 3h82l1-265 4-20 7-16 7-11 8-9v-2h2v-2l4-2 10-8 15-8 16-5 15-2h995l16 2 15 5 17 9 11 9 9 9 9 14 7 15 4 16 1 14 1 257h40l24-2 30-5 24-6 27-9 21-9 17-8 27-16 17-12 14-11 15-13 25-25 8-10 14-18 13-20 12-21 10-21 10-26 8-27 5-24 3-19 2-26v-31l-3-32-5-28-8-29-10-28-16-33-12-20-11-16-10-13-12-14-11-12-11-11-11-9-9-8-16-12-17-11-17-10-16-8-17-8-25-9-24-7-30-6-27-3-26-1-24 1-33 4-18 3h-7l-6-3-3-1-5-10v-9l6-37 2-25v-47l-3-30-4-24-7-30-12-36-10-24-8-16-11-21-14-22-14-19-11-13-8-10-8-8-7-8-8-8h-2v-2l-8-7-13-11-13-10-17-12-19-12-18-10-16-8-20-9-27-10-28-8-29-6-22-3-21-2zm-587 879-12 2-12 5-10 8-7 8-7 13-2 7-1 8v671l1091 1 2-1 1-7v-660l-2-14-4-11-7-11-7-7-14-8-9-3-7-1zm-131 762-2 1 1 9 6 24 8 20 10 18 10 14 9 10 7 8 14 12 15 10 14 8 19 8 19 5 17 3 11 1 142 1h649l147-1 18-2 15-3 24-8 23-12 14-10 11-9 17-17 12-17 9-15 8-19 6-21 3-17-1-1z"></path><path transform="translate(586,1061)" d="m0 0h873l14 2 12 5 10 7 5 4 9 12 5 11 2 8 1 41v340l-1 135-4 13-6 11-11 12-13 8-13 4-5 1h-882l-12-3-13-7-10-9-7-9-5-10-3-10-1-7v-504l3-14 7-14 8-10 10-8 13-6 6-2zm1 40-7 3-5 4-3 5-1 6v501l3 7 8 7 3 1h877l8-4 4-5 2-4 1-67v-407l-1-33-4-8-5-4-8-2z"></path><path transform="translate(966,1825)" d="m0 0h115l8 4 6 8 1 3v10l-6 9-5 4-3 1-18 1h-91l-10-2-8-7-3-6v-11l5-8 5-4z"></path></svg>