<svg xmlns="http://www.w3.org/2000/svg" viewBox="0 0 2048 2048" width="512" height="512"><path transform="translate(1409,66)" d="m0 0h106l13 3 14 7 10 8 8 8 9 14 5 11 5 16 16 69 1 7 11 3 21 8 24 11 5 3 5-2 22-14 24-15 21-13 15-7 13-4 6-1h23l12 3 14 7 10 8 15 14 47 47 9 11 7 12 4 13 1 5v19l-3 15-6 15-8 15-12 19-10 16-12 19-4 6 1 7 7 15 8 19 7 20 1 3 42 10 39 9 16 6 16 9 13 12 8 11 5 10 3 10 1 8v99l-2 13-5 12-6 10-9 10-8 7-16 9-21 7-74 17-2 1-6 18-10 24-8 17v5l12 19 15 24 12 19 9 17 5 15 2 10v18l-3 14-4 10-6 9-7 9-8 8h-2l-2 4-7 6-5 6-7 6-5 6-7 6-5 6-4 4h-2l-2 4h-2l-1 3-14 11-15 7-14 3h-17l-16-3-19-8-5-3v423l-3 19-5 15-8 17-9 13-9 10-10 10-10 7-14 8-18 7-19 4-12 1h-493l10 40 9 26 11 25 8 16 11 20 11 17 88 1 35 2 25 4 19 5 21 7 26 12 21 13 15 11 14 12 16 16 11 14 10 14 10 18 7 15 6 16 5 19 3 15 1 8v14l-2 9-5 10-8 9-16 8-16 3-53 1h-93l-1022-1-15-3-12-6-5-4v-2h-2l-8-12-3-10v-18l5-25 6-20 8-20 10-19 8-12 8-11 12-14 16-16 11-9 17-12 15-9 15-8 20-8 18-6 26-6 25-3 21-1 92-1 7-10 15-26 11-22 11-27 8-26 8-32-494-1-18-2-16-4-18-8-14-9-13-11-7-7-10-13-8-14-8-20-3-15-1-9v-950l3-18 6-18 7-14 9-13 11-13 13-11 14-9 15-7 13-4 18-3 36-1h890l-9-14-15-24-11-18-8-16-4-13-2-13v-9l3-16 5-12 7-11 11-12 58-58 11-8 12-6 13-3h23l16 4 14 6 20 12 19 12 24 15 11 7 19-9 19-8 24-9 7-29 10-44 5-16 7-16 9-12 7-8 11-8 12-6zm8 65-4 4-4 10-9 38-13 57-5 12-6 7-12 6-33 11-21 9-19 9-16 8-10 2-9-1-10-4-38-24-24-15-21-13-9-4h-7l-8 7-54 54-1 2v7l8 16 24 38 10 16 13 21 5 11 1 5v7l-4 12-9 17-10 22-9 24-8 24-6 10-8 6-11 4-83 19-15 4-9 5-1 2v91l8 5 14 4 53 12 37 9 12 6 5 6 5 10 11 33 13 30 11 21 4 13-1 11-4 10-24 38-8 13-9 14-10 16-5 11v7l7 8 54 54 2 1 9-1 12-6 22-14 24-15 23-15 12-7 8-3h12l11 4 17 9 27 12 25 9 18 6 10 6 6 8 4 10 20 88 4 13 5 8h91l4-4 5-15 16-69 6-25 5-10 5-5 8-5 41-14 27-12 21-11 9-3h11l11 4 21 13 38 24 24 15 11 5h7l63-63-1-9-7-14-15-23-9-15-14-22-11-18-4-11v-11l5-13 12-23 11-26 13-38 6-9 10-6 19-5 79-18 12-4 6-5v-89l-4-5-13-5-61-14-34-8-9-4-7-6-7-14-10-30-11-26-15-30-2-7v-9l3-10 8-14 6-9 15-24 14-22 12-20 3-8v-6l-9-10-48-48h-2v-2l-4-3h-7l-9 4-20 12-19 12-23 15-22 13-9 4h-16l-12-5-19-10-26-11-41-14-8-6-6-8-5-16-19-83-4-13-4-6zm-1272 346-12 3-10 5-11 9-8 11-4 9-2 7-1 10v937l3 14 6 12 9 10 9 7 13 6 12 2h1459l12-2 12-5 10-7 7-7 7-11 4-12 1-8v-459l-7 1-24 11-29 11-5 2-6 25-11 48-6 19-8 16-8 11-7 7-12 8-16 6-13 3-1 184-2 11-6 12-6 7-11 7-10 3-8 1h-188l-10-2-12-6-8-7-7-11-3-10-1-16v-321l-3-1-24 15-17 10-11 6-1 1-1 304-3 11-6 10-6 7-10 6-10 3-8 1h-187l-11-2-12-6-8-7-6-10-4-11-1-11v-477l1-34 4-11 6-10 8-7 12-6 11-2 120-1-3-10-10-25-6-16-24-6-53-12-18-6-15-8-10-8-8-8-9-15-5-16-1-22v-45l1-42 3-12 8-16 9-11 13-10 16-8 19-6 71-16 4-3 1-8zm827 394-1 466h144v-281l-13-11-26-26-5-4-6-7-6-5-2-3h-2l-2-4h-2l-2-4h-2l-2-4-11-11-7-11-5-12-2-8-1-14 2-15 4-14 8-16 8-14v-2zm329 153v313h143v-161l-33-1-14-3-12-5-12-9-8-8-9-14-6-13-6-20-14-62-3-8-9-4-14-5zm-592 560-2 7-7 31-7 25-7 21-9 22-10 22-8 15v2l232 1h208l-1-5-13-26-12-29-12-36-7-30-4-20zm-237 211-21 3-19 5-21 8-21 11-14 10-13 11-15 15-12 17-10 18-9 24v1h1123l-2-9-6-16-9-17-10-14-11-13-13-12-18-13-18-10-21-9-21-6-16-3-9-1z"></path><path transform="translate(527,538)" d="m0 0h239l16 3 16 8 10 8 8 10 8 15 3 12v248l-4 15-6 12-8 10-9 8-8 5-13 5-9 2h-19l-12-3-14-7-10-8-36-36-5 1-17 14-14 10-18 12-19 11-21 11-26 11-28 9-26 6-27 4-10 1h-44l-25-3-24-5-27-8-27-11-27-14-15-10-19-14-10-9-8-7-16-16-7-8-12-15-11-16-11-18-11-21-8-19-6-18-2-12v-11l3-15 5-12 6-8 5-6 10-7 12-5 5-1h18l12 3 14 7 14 11 8 8 8 7 12 11 18 13 13 8 17 8 18 6 14 3 7 1h30l25-5 21-7 20-9 18-10 24-16 1-2-5-6-29-29-7-10-6-13-3-12v-16l4-16 7-14 11-12 7-6 16-8zm5 65v3l56 56 6 8 4 9v15l-4 9-6 8-14 11-17 13-19 13-21 13-27 14-23 9-19 6-23 5-23 3h-23l-17-2-24-5-21-7-22-10-20-12-17-12-14-11-7-7-4-2 3 9 12 21 12 17 9 11 11 12 13 13 14 11 16 11 14 8 16 8 24 9 19 5 17 3 18 2h31l25-3 23-5 22-7 20-8 17-8 21-12 19-13 12-9 11-9 13-12 8-7 7-6 9-4 4-1h10l11 4 9 7 57 57h2v-231z"></path><path transform="translate(1446,354)" d="m0 0h31l28 3 28 6 24 8 19 8 22 12 14 9 12 9 10 8 10 9 20 20 11 14 12 17 12 21 10 21 7 19 7 26 4 23 2 29-1 29-3 22-3 15-5 19-9 25-8 16-8 15-9 14-12 16-11 13-7 8-8 7-7 7-11 9-18 13-15 9-21 11-20 8-26 8-25 5-15 2-14 1h-23l-23-2-27-5-24-7-25-10-20-10-16-10-14-10-11-9-12-11-18-18-9-11-13-18-14-24-9-19-9-25-6-24-4-26-1-10v-36l3-26 6-27 9-27 11-24 12-21 10-14 9-12 13-15 14-14 8-7 13-10 10-7 16-10 23-12 20-8 15-5 21-5 25-4zm6 65-20 2-20 4-17 5-19 8-19 10-17 12-11 9-12 11-7 8-13 16-11 18-8 15-9 24-5 18-4 31v23l3 24 6 25 10 25 10 19 12 17 8 10 5 6h2l2 4 4 4h2v2l11 9 13 10 22 13 23 10 20 6 21 4 27 2 20-1 20-3 20-5 19-7 19-9 16-10 16-12 13-12 10-10 9-11 12-18 8-14 8-19 6-19 4-19 2-15v-36l-3-21-6-23-8-21-12-23-11-16-9-11-7-8h-2l-2-4-8-7-11-9-13-9-17-10-20-9-19-6-17-4-14-2-14-1z"></path><path transform="translate(618,948)" d="m0 0h192l10 2 12 6 10 9 6 10 3 9v381l-4 12-8 11-8 7-12 5-12 2h-187l-11-2-12-6-9-8-8-14-2-8v-379l4-12 8-11 8-7 11-5zm26 65-1 1v323h143v-324z"></path><path transform="translate(286,1090)" d="m0 0h198l13 4 9 6 5 5 7 9 4 11 1 12v215l-1 14-4 11-6 9-7 7-11 6-16 3h-187l-11-2-12-6-7-6-7-10-4-10-1-5v-235l3-10 6-11 8-8 10-6zm28 65v182h143v-182z"></path><path transform="translate(236,733)" d="m0 0"></path></svg>