<svg xmlns="http://www.w3.org/2000/svg" viewBox="0 0 2048 2048" width="512" height="512"><path transform="translate(1312,146)" d="m0 0h14l8 3 6 4 8 8 13 18 10 14 13 18 14 19 13 18 7 12 2 10-2 11-4 8-12 17-13 18-14 19-13 18-10 14-8 10-7 6-9 4-11 1-12-3-8-6-7-9-3-9v-12l4-10 9-13 13-18 7-10 1-2h-347l-31 2-27 4-25 6-23 7-29 12-20 10-17 10-12 8-11 8-14 11-9 8h-2v2l-8 7-13 13-7 8-9 11-12 16-10 15-12 21-13 27-9 24-7 24-5 22-4 28-1 15v92l13 11 10 8 15 14 16 16 9 11 11 13 13 18 14 22 12 22 11 23 9 24 7 22 6 24 5 29 2 18 4 1h521l-26-36-6-10-3-7v-13l5-12 5-6 9-6 6-2h14l12 5 9 9 11 15 26 36 11 15 13 18 9 14 2 5 1 9-2 9-5 10-13 18-14 19-10 14-26 36-9 10-7 5-12 3h-7l-10-3-8-6-5-6-4-8-1-3v-12l4-11 12-17 10-14 8-11 1-2h-525l-2 21-5 27-6 25-12 36-11 25-13 25-13 21-12 17-8 10-13 16-15 16-11 11-8 7-13 11-10 8-1 1v91l2 24 5 30 8 30 9 25 9 20 13 25 13 20 8 11 11 14 10 11 7 8 11 11 8 7 12 10 13 10 12 8 18 11 23 12 20 9 33 11 20 5 32 5 20 2 21 1h339l-4-7-13-18-11-15-5-10-1-3v-13l5-12 2-3h2v-2h2v-2l11-6 4-1h12l9 3 8 6 8 9 13 18 10 14 13 18 14 19 13 18 6 12 1 11-3 10-7 11-10 14-13 18-14 19-26 36-8 8-7 4-7 2h-11l-11-4-9-8-5-8-2-6v-12l4-11 10-14 12-17 8-11-335-1-30-1-31-3-24-4-29-7-36-12-26-11-24-12-20-12-15-10-16-12-14-11-12-11-13-12-9-9-7-8-10-11-10-13-13-18-14-22-12-22-11-23-9-23-10-31-6-26-4-23-3-29-1-21v-38l1-2-30 12-27 9-24 6-21 4-21 3-25 2h-36l-33-3-29-5-28-7-24-8-22-9-29-14-22-13-12-8-11-8-14-11-13-11-15-14-12-12-7-8-11-13-13-17-12-18-15-25-11-23-8-19-12-36-7-30-4-26-2-20-1-30 1-26 4-33 5-26 7-26 9-25 8-19 12-25 13-22 8-12 10-14 11-14 9-10 7-8 3-4h2l2-4 6-6h2v-2h2v-2l8-7 14-12 17-13 13-9 21-13 27-14 20-9 18-7 31-9 28-6 29-4 11-1h53l29 3 24 4 25 6 23 7 28 11 10 5v-41l2-33 4-29 6-28 9-31 12-31 8-18 12-22 10-17 13-19 12-16 11-13 12-13 4-5h2l2-4h2v-2h2v-2l8-7 12-11 14-11 16-12 17-11 15-9 12-7 28-13 23-9 25-8 24-6 28-5 26-3 22-1 351-1-14-20-13-18-7-14v-13l5-12 6-7 8-5zm-921 558-28 3-29 6-27 8-27 11-24 12-22 14-14 10-16 13-12 11-16 16-9 11-10 12-9 13-10 15-13 24-11 25-10 30-5 22-4 23-2 21v41l3 28 6 29 7 24 8 21 9 20 12 22 12 18 12 16 11 13 11 12 13 13 22 18 17 12 18 11 27 14 28 11 19 6 27 6 30 4 20 1h17l28-2 30-5 24-6 26-9 25-11 22-12 21-14 12-9 11-9 13-12 3-2v-2l4-2v-2l3-1 7-8 13-15 14-19 11-18 10-18 8-17 10-26 8-29 4-21 3-24 1-18v-19l-2-27-4-26-7-28-9-27-11-24-11-21-13-20-12-16-9-11-12-13-15-15-11-9-15-12-15-10-18-11-19-10-24-10-27-9-26-6-19-3-21-2z"></path><path transform="translate(1775,780)" d="m0 0 25 1 27 4 19 5 20 7 18 8 17 9 15 10 12 9 14 12 18 18 9 11 13 18 13 23 9 20 8 24 5 22 3 23v40l-3 22-5 23-8 24-9 20-9 16-7 11-12 16-12 14-16 16-11 9-15 11-22 13-21 10-30 10-23 5-24 3h-34l-23-3-23-5-24-8-18-8-17-9-16-10-14-11-14-12-13-13-9-11-13-17-12-20-12-25-7-19-6-24-4-27v-42l4-27 4-17 7-21 9-21 11-20 10-15 11-14 9-10 6-7 8-7 11-10 18-13 20-12 23-11 22-8 20-5 27-4zm-11 66-18 2-24 6-20 8-17 9-13 9-10 8-10 9-8 8-11 14-10 15-8 16-7 17-5 19-3 16-1 13v20l2 17 5 22 6 18 8 17 10 16 10 13 12 13 13 12 16 11 16 9 15 7 15 5 16 4 14 2 14 1h13l20-2 23-5 22-8 21-11 17-12 11-9v-2l4-2 13-14 11-15 10-17 8-19 5-16 4-18 2-19v-18l-2-20-6-25-7-18-8-16-9-15-11-14-14-14-10-9-16-11-16-9-16-7-18-6-21-4-12-1z"></path><path transform="translate(1768,27)" d="m0 0h16l25 2 23 4 24 7 22 9 20 10 14 9 19 14 13 12 6 5v2h2l7 8 11 13 12 17 13 23 9 20 8 24 5 22 3 23v40l-3 22-5 23-9 26-8 18-9 16-7 11-12 16-12 14-15 15-11 9-15 11-16 10-19 10-26 10-17 5-26 5-18 2h-32l-30-4-20-5-23-8-26-12-21-13-16-12-11-10-8-7-5-5v-2h-2l-9-11-11-14-11-17-13-25-10-26-6-24-4-27v-42l3-22 5-22 7-21 9-21 11-20 8-12 9-12 11-13 3-4h2l2-4 13-12 14-11 14-10 15-9 22-11 25-9 25-6 22-3zm-6 66-22 3-21 6-15 6-16 8-15 10-10 8-10 9-9 9-9 11-11 16-6 11-7 16-7 21-4 22-1 12v21l2 17 5 23 8 21 8 16 10 16 11 13 9 10 12 11 14 10 15 9 17 8 21 7 19 4 21 2h13l19-2 15-3 21-6 20-9 17-10 13-10 10-9 7-6 7-8 1-3h2l13-19 7-12 8-19 6-19 4-22 1-12v-18l-2-20-6-25-8-21-10-19-12-17-11-12-14-14-18-13-16-9-15-7-21-7-21-4-10-1z"></path><path transform="translate(1756,1534)" d="m0 0h41l24 3 25 6 25 9 23 11 22 14 17 13 15 14 12 12 11 14 10 14 9 15 8 15 11 28 6 22 4 23 1 11v39l-3 22-5 23-8 24-12 26-9 15-8 12-13 16-9 10-15 15-14 11-14 10-19 11-23 11-27 9-24 5-24 3h-33l-25-3-22-5-27-9-27-13-18-11-17-13-10-9-8-7-7-7-7-8-9-11-12-17-13-23-7-16-6-16-6-22-4-23-1-8v-43l4-27 6-24 9-24 8-17 12-20 10-14 8-10 9-10 4-5 8-7 12-11 14-10 14-9 14-8 19-9 30-10 24-5zm8 65-22 3-17 4-25 10-15 8-13 9-11 9-12 11-10 11-12 17-8 14-7 14-7 21-5 25-1 12v21l2 17 5 23 7 19 8 16 7 12 12 16 12 13 12 11 15 11 19 11 19 8 17 5 22 4 12 1h19l18-2 22-5 20-7 23-12 16-11 14-12 9-9v-2l3-1 12-16 8-13 8-16 6-15 5-18 3-18 1-12v-19l-3-24-6-23-8-20-11-20-12-16-11-12-9-9-14-11-16-10-15-8-19-7-19-5-22-3z"></path></svg>